<svg xmlns="http://www.w3.org/2000/svg" viewBox="0 0 750 1000" preserveAspectRatio="xMidYMin slice" width="100%" image-rendering="optimizeQuality" baseProfile="basic" style="background-color:#fff; padding-bottom: 133%; height: 1px; overflow: visible">
  <g overflow="visible">
    <path fill="#FFF" d="M0 1000h750.05V0H0v1000"/>
    <path d="M663.05 415.7v.5l-.55 6.45v.25l-.05.15-.05.95-.7-.5-.4-.1h-.35l-.6.1-.05.05-.25.05-.55.35-1 .9-.9 1.15-.75 1.35-.05.05-.05.1-1.2.6-.8-1v.1l-.05.2v.2l-.3 1.65v.1l-4.3 19.95-.6 1.95-.1.25-.05-.05-.15-.2-.15-.3-.3-1-.15-2.55.3-3.35 2.75-12.9v-.65l-.1-.7-.25-.4-.45-.4-.55-.1-.45.05-.35.15-.25.15-1.1 1-1.6 2.05v.05l-.45.65-1.75 4.25-1.95 7.75-3.15 8.9-.05.2-.25-6.25.05-.2 1.65-23.65v-6l-.05-.25v-.2l-.05-.2-.4-.55-1.65.15-.25.45-.1.45v.15l-1.3 16.1-.25 13.25-1.1-5.9-.3-.8-.25-.35-.55-.45h-1l-.55.4-.2.3-.15.3-.15.65-.9 14.6-1.85-14-.1-.35-1.05-.9-1.3.85-.05.15-1.05 19.1-.5 3.15-.15.6v.05l-.45-3.45v-.15l.9-8.5-.3-6.25-.3-1.75-.3-.75-.25-.35-.85-.4-1 .35-.3.45-.15.3-.25 2.1.3 14.65-1.55 6.35-.3-1.8-1.1-13.2-.05-.3v-.25l-.9-1.2-.25-.05q-.55-.05-.9.3-.4.35-.45.85l-1.3 14.5-.85-7.45-.85-3.75-.15-.45-.55-1.1-.25-.3-.35-.3-.6-.3-.25-.05h-.4l-.4.05-.4.2-.3.25-.25.3-.25.4-.25 1.05-.05.55.25 4.1-.55 15.7-7-44.8q-.05-.4-.45-.6-.35-.25-.75-.15t-.65.5q-.2.35-.15.75l3 15.8 4.1 31.1v.2l.65 7.35.15.3.65.5 1.15-.25.35-.45.1-.25.05-.3.05-.15.95-7.6.5-20.5 2.1 16.2.1.25.05.3.15.25.25.3.55.4.95-.05.55-.45.35-.7.1-.35 1.1-6.85.85 4.25.45.9.45.45.9.25.9-.3.3-.3.2-.3.15-.3.05-.15.05-.05 1.05-3 .2.4.2.25.3.3.45.25.65.1.4-.1.2-.1.15-.1.45-.4.45-.55.3-.55.7-2.1.45-2.55.5-6.65 1.3 9.05.15.65.15.3.95.65 1.15-.5.3-.65.3-1.3 1.05-16.1 1.45 11.45h.05v.15l.15.8.5.55-.05.2v.8l.1.45.45.8.35.3.4.2.55.15h.55l.8-.1.7-.25.65-.35 1.15-1.05.45-.65 1.3-2.35 1.55-4.85 1.05-5.55v.15l.2 1.85.25.95.4.9.5.8.7.7.7.4.3.1h.05l.85-.15.45-.5.3-.45.4-1.05 2.35-9.05v.2l.35 1.5.35.8.65 1 .6.5.8.35.4.1h.7l.05-.05h.15l.4-.1 1.2-.55.65-.55.55-.6.95-1.45 1.1-2.65.1-.4-.35 10.45-1.05 9.65-1.95 8.05-.7 1.9-2.65 5-2.9 3.15-1.35.95-1.85.95q-.3.15-.4.5-.15.3 0 .6.1.35.45.45.3.1.6 0l.45-.2 2.45-1.45.75-.55 2.6-2.7 1.65-2.4 1.8-3.7.35-.95 1.95-7 1.35-9.65.85-37.75.05-.4v-.45l-1.85-.15v.15l-.05.2m-2.8 10.2l.6-.45.1-.05-.05-.05h-.05v-.05l.1.05.05.05.15.2.35.8.15.6.35 2.25v.05l-1 6.5-.7 2.5-.75 1.75-.55.85-.55.55-.25.2-.3.15-.2.05h-.4l-.15-.05-.35-.35-.3-.75-.2-1.1-.05-2 .45-3.55 1.25-4.35.95-2 1-1.45.35-.35m-11.95 7.75l.9-1.15-2.25 9.95-.05.35.05-.8-.1-2.5-.25-.9q-.1-.2-.25-.3l1.45-3.85.55-.85-.05.05m9.75 10.1h.1l.2-.1.6-.2 1.05-.75.1-.1-.2.45-.7 1.15-.4.4-.7.55-.65.2h-.2l-.1-.05-.15-.05-.1-.05-.25-.25-.25-.4-.35-.95-.05-.25.35.2.6.2.9.05.2-.05m-13.7 2.5l-.95 6.1-1.05 3.85-1.7 3.65-.75.85-.4.3-.3.15-.35.1h-.3v-.05l.05-.1v-.15l.05-.15.05-.25.25-.75.1-.15h.35l.25-.35h.05l.1-.3.15-.3.1-.35 2.65-6 .05-.05.45-1.35 1.15-4.7"/>
    <path d="M691.1 606.6l-.6-1.5-2.8-4.3-2.45-2.7-2.05-1.6-.6-.25-.3-.25-.3-.15-1.5-.45-3.17-.23-.68-.42-28.07-2.1-15.83-2.15-6.85-.1-12.67-2.9.27-.25 2.55-4.95 1.8-5.7 1.2-7.95v-.45l.35-1.9.35-8.3-.8-8.4-1.35-5.55-.8-.95-1.05-4.4-3.05-8.7-1.48-3.15-.07-.2-4.4-9.45-.45-.75-1.4-3.65-4.63-9.05-.02-.4-13.5-27.3-2.6-4.35-.2-.18-13.5-36.02-.85-10.05-1-5-1.3-2.35-.15.8-.15-.55-.65-.85-.75-.18-.15-.22-.25-.3-.23-.35-.92-2-3.5-5-4.4-4.3-2.3-1.65-9.9-14.5-9.1-10.25-4.58-4.15.58-1.45.23-1.05.22-.65 2.8-13.45.15-1.18 1.85-8.87.15-2.43 1.65-5.52 2.1-12.1.98-17.35.12.15-.1-1.65.15-6.35-.23-1.25.03-3.1-.1-.88.05-4.72-.23-1.88-.07-10.37-.5-3.4-1-3.35-.8-1.55-.6-.75-.03.25-1.02-5.1-1.35-3.5-.9-1.7-.13-.13-2.62-4.92-3.55-4.7-3.7-3.8-5.65-4.35-4.35-2.1-1.25-.35v.05l.85.9 3.88 3.32-.75-.47-.48-.4-1.95-1.15-.23-.08-1.92-1.17-.75-.35-2.15-1.35-10.1-4.5-5.85-1.6-2.27-.1-1.38-.35-9.2-1h-.1l-.4-.05-4.9-.1-1.2-.4-2.05-.35-2.6-.1-6.2.6-5.8 1.42-.23.03-.67-.05-3.3.3-4.65 1.25-3 1.25-4.2 2.5-.1.1-4.25 2.35-2.25 1.6-5.3 4.6-.57.68-.43.32-.77.75-.13.1-.05.08-.25.22-.15.22-2.4 2.2-1.15.78-1.8 1.8-1.02 1.67-.38.48-1 1.72-2.05 1.83-1.8 3.7-.35 1.25-.38-.13.08-.42-.7-.9-1.1.4-.48 1.43-.14.07-.23-.85-1.35 1.6-1.55 7.3-.93 7.2-.52.6-2.1 4.7-.15.52-9.7 15.58-3.1 4.05-2.6 2.5-7.65 5.9-6.13 3.82-10.02 3.8-3.3.68-1.8.1-3.55-.2-1.75-.3-5.47-1.73-.03-.02h-.05l-.15-.05-.05-.05-.3-.2-.45-.2-.1-.02-.6-1.38-1-1.4-1.15-.5-.08.23-.07-.08-.05.07v-.02l-.3-.6-.28.43-.02-.08-.55.65-.55 1.3-.35 1.35-.15 2.7.3 2.3.55 1.85.85 1.65.75 1.05.6.6-10.8-2.55-8.05-3.93-4.35-4.87-.85-1.8-.4-.55-.2.5-.4-.5.15.75.13.4-.1.65-.63-.7-.6-.5v.8l.4 1.5.52 1.25-.02.65.15.53v.52l.25 1.15.4 1.1 1.5 3.1.13.2.47 1 .2.27.05.58 1.1 2.1.5.6-3.65-.1-2.45-.45-2.35-.75-6.23-3.38-1.07-1.52v.55l.1.5-.15-.05v.35l.25.7.13.2.07.45.55 1.32-6.8-3.62-1.47-.48-.03-.02-4.25-1.5-.1-.25-.55-.95-3-1.6-5.4-1.75-1.85-.35-5.68-.5.83-.35-.85-.95-4.15-1.15-6.35-.6-3.8.17-2.25-.32-4.25.05-1.8-.15-7.65.05-1.7.2-.85-.35-1.2-.05-5.9.85-12.8 3.9-.95 1.35-11.7 5.35-.75 1.25.35.13-5.3 3.27-9.75 7.65-1.83 1.98-.52.12-.85.82-4.22 2.08-16.63 2-6.7 1.45-7.9 2.35-5.85 1.25-8 2.85-17.9 8.6-6.5 4.23-.05-.03-9.4 4.6-.5.68-5.8.67-7.45 2-4.6 1.92-.25-.17-1.2.05-1.15.4-3.3 1.55-1.63 1.1-.24.1-.08-.05-6.9 2.5-10.5 4.95-1.4 1.6h.47l-8.07 4.35-.95 1.05-.07.38-.98.82-.45.55.05.6.15.25-.45.25-.55.4.13.63-.43.17-.35.85-.15.9.1 1.8.45 2.15 2.45 7.35.35.75.55 10-.1 3.1.05.13-.95 6.62-.75.95-1.1 5.2-.45 13.1.48 5.78-.18.67-.3 2.95.2 4.3 1 4.25.35.95.05.55 1.33 2.95-.13.8.25 1.15.75 2.25 1 1.93.25 1.52.8.48.7 1.12 3.95 4.85 5.25 4.83 6 8.32.6 1.15 2.38 6.43-8.8 10.77-2.68 2.75-.15 1.6h.15l-.35.92-.4.33-.28.3-.17.1-3.15 2.65-2.58 1.68-3.82 1.47-1.35.7-1.9 1.5-.8 1-.48.88-.52.42-.5 1.4-.6 6.77-1.25 3.13-1.2 4.6-.25 1.95v2.6l.08.55-.03.15.05.1.1.7.52 1.68-.37.12-.9.75-.6.9-1.2 2.8-.43 1.65-.27.2-.4.45-.3.45-.5.95-.02.07-.48.53.18.57-.03.08-.2 2.05.25 2.1.5 1.55-.15.3.77 2.75.78 7.3v.1l.2 2.85.75 2.85.45.9.6.85.63.07.22.73.9 1.1.27.25-.07.05-.35.95.5.55 1.15.85 1.3.7 1.35.4.63.05-.03.15.6 1.9.6 1.35 2.85 5.05 6.92 8.5.18.27 8.4 29.08 4.42 18.07 1.78 10.68v.6l1.5 9.15.15.45 1.55 9.85 2.95 13.15 3.55 11.45 2.5 6.35.38.72.02.18.42.7 2.98 5.9 1.4 1.45.2.1.05.1.08.1 3.82 7.45 3.95 6.05 5.65 6.65 1.5.9 1.05.1-.17-.85 7.67 11.05 12.35 14.15 1.08.95 3.32 5.1 6.1 7.95 5 5.15 1.48.8 7.72 11.83 8.55 18.07 6.1 17.38 6.77 28.77-.02.2.97 10.98-10.15 6.3L154 902.6l-1.7.9-.1.3-.25.7h-.2l.45-.7.03-.25.07-.15-.08.02.08-.67h-1.05l-1.4.75-9.25 6.7-7.67 4.35-1.18.65-.28-.1h-.02l-7.05 1.8-1.2-.8-2.45-.05-4.7.5-1.1 1.15.27.22-2.17.43-.3 1.07-.75.33-2.63 2.52-11.84 5.58h-.23l-.17.17-.38.18-.15.35-.1.1-.65.9-.95 2-.48 1.68-.02-.03-.5.2-.65.5-.15.65-.15 1.3.05 1.3.25 1.3.6 1.6v.05l.2 1.05.3.88-.2.42.25.95 1.25 1.5 2.35 1.75 1.75.85 3.75 1 .65.08.65.67 1.05.85.9.55 2.05.8 3.25.6h2.2l.08-.15h.14l.13.2 1.05 1.05 1.25.85 2.1.85 2.25.4 2.3.05.28-.02.87.12h1.9l1-.13 2.75 1.63 1.35.5 1.2 1.05 2.95 1.5 2.4.8 2.9.6 3.6.25 2.25.65 1.4.25 5.65.15 5.6-1.05 4.05-1.5 1-.52.5-.18 2.45-1.35.22-.15 11.88-.67 6.15.12 4.75-.75 1.85-.1 3.45-.55 6.7-1.8 3.3-1.3 4.8-2.6 4.65-3.55 1.3-1.6.18-.83 1.02-.12 20.5-.17 4.45.27 6.65-.25 4.25-.77.4.17 2.5-.5 1.08-.48.12.03 1.7-.55 1.4-.65 1-.65 1.75-1.5.1-.1.3-.2 1.3-1.2 1.65-2.05 1.77-3.38.63-.92 1.3-3.55.45-2.5.1-2.55-.25-1.3-.1-.1.45-4.85-.7-11.15-2.9-15.45.4-.75-1.15-8.3-2.65-10-6.57-34.45-1.08-8.8-6-23.85 2.05.52 7.05 2.93 7.15 1.85 6.65.9 9 .25 12.15-1.2 14.4-3.7 10.9-3.75 3.85-1.85-.55 2.7-.25 7.4.6 3.9.65 2 .15.95 1.5 5 .7 1.75.65 1.05.1.35 1.4 2.9 1.9 2.65 3.45 3.4 1.55 1.1.5.65.9.95 2.7 2.2 4.6 2.6 5.05 1.9 9 1.6 5.5.1 5.4-.45 1.35-.3.75.1 7-.45 2.05.35 4.3-.3 4.65-1.2 1.95-.9.9-.65.85-.9 3.15-2.05 6.25-5.55 3.7-4.7 2.4-4.1 1.35-3.25.8-2.95.05-.5.95-2.85.8-4.8.2-4.9-.05-.42 10.55-2.43.05-.05 1.05-.35 8.2-3.45 7.55-4.45 2.85-2.17 1.6-.68.05-.05.55-.25 2.15-1.35 3.2-2.55 3.73-3.75 1.05-.7 2.07-.25 13.2-3 16.5-5.45 5.13-2.15-1.18 2.4v.05l-8.05 15.4-36.45 58.3-10 17.25-.5 1.15-5.1 7.7-5.8 11.8-.45 1.4-3.7 7.75-2.8 9.35-1.15 7.75-.1 5.8.35 3.85.4 1.9.35.67-.05 1.68.5 3.35.5 1.05.85.35.5-.58.25.58.75 1.05.95.8.43.22.67.58 1.4.9.1.1v-.05l.3.2 2.8 1.3 9.3 3 7.15 1.3 4.8.23 9.3 1.87 6.25.6 10.25.05 9.7-1.55.65-.3 2.3-.13 2.75.18 27.55-2.2h2.17l17.83 1.42 7.85 3.03 8.85 1.85 5.4.2 5.45-.7 3.2-.88 1-.17 2.65-.85.95-.48 3.75-1.22 9.2-2.05.6-.23.15.23 1.3 1.35 1.65 1 1.85.65.45-.48.65.33 5.35 1.9 6.5.7 2.3-.33.2.08 2.05-.45 2.8-.95.52-.28 1.98-.27.95-.35 1.75-.85.7-.55 1.65-.85 1.9-1.5.75-.9.95-1.5.05-.13.3-.17.2-1.05v-.1l.1-.25.25-1.2v-2.55l-.15-.93.05-1.32-.4-4.1-.95-3.35-.55-1-.5-.7-.45-.1-.2-1.1-.8-.3-.9-.15-.7.05-.45.25v.07l-12.15-2.32-2.5-.85-.92-.45-.68-.75-1.7-1.55-.48-.1-.12-.25-1.2-1.55-.15-.05-.15-.25-.55-.6-.55-.45-.65-.4-1.35-.55-.75-.15-3.95-.25-.15.25-5.3-1.15-3.05-.25-1 .3-.33.25-.47-.05-.6.13-.05-.33-1.35-.95-2.95-1.6-.7-.27v-.03l-.17-.05-3.63-1.45-.35-.35-15.55-6.4-2.88-1.8-1.02-1-.25.08-4.65-4.03-1.1-.55-.65-.15v.65l.02.15-.27-.4-.48-.33.08-.67-.5-1-.8-.65-2.6-1.7-1.9-.9-7.88-2.65-13.82-6.4-.3-.25-1.05-.45-.38-.1-1.22-.57 1.05-5.08.72-1.83 5.23-9.37 5.9-8.5 10.6-13.2 10.63-11.52.67-.63 6.25-6.9.25-.57 11.42-13.15 3.5-2.1.38-.18 10.4-6.3.7-.65.07-.13 16.28-10.27 17.7-13.4 11.05-9.75 12.45-13.15 11.55-15.8v-.05l.88-1.57 1.47-1.83 3.33-5.3 12-11.68 1.37-1.02 12.9-11.2 12.2-13.2.55.3.5-.25.35-.35 1.65-2 4.75-6.9 3-5.7.5-2.05.1-3.05-.35-3.6-.1-.48V659l-1.55-11.38-.05-1.62-1.95-11.9-4.15-13.85-3-7.45-2.95-5.8-.3-.4m-10.38-8.77l.08.02.2.1.15.05.15.15-.63-.25.08-.05-.02-.02m-18.2 112.82l.14-.2.58-.5-.73.7m-309.17-386.5l-.65-.25-.52-.35-.13-.35.65.5.85.48-.2-.03m167.17-75.75l.1.03.15.2-.25-.23M199.4 456.55l8.6-1.7 1.7-.5 11.35-4.55 3.17-1.9-1.37 10.75-.25 12.25.35 3.93v1.27l.18.57.07.88.25.22.6 2.08.2-.68.3 16.83.8 4.38v.07l.03.07 4.52 21.43 3.4 11.15.25.6.25 1.5.05.1.25 2.25 1.8 2.95 1.65 4.17-.4-.27-.2 1.8 1.1 2.9 8.5 14.92 1.82 8.75-3.67-3.72-23.25-18.7-19.85-12.5-14.6-7.7-.35-.8-.65-.8-.4-.3-3.53-9.35-.94-5.07.17-1.63-.58-.7.33-.7-2.1-3.05-2.7-2.6-1.03-.5-1.42-1.15-4.6-2.6-1.65-.55-.2.05-1.65-.75-.77-.02.02-.13-.7-.9-2.53.4-.47-.15-1.25.65-.15.05-.78.4-.87-1.13.25.03-.05-1.65-2.72-3.38-1.68-5.62 2-9.68.55-1.27 1.55-5.1 1.05-7.25.1-2.7-.45-8-.25-1.38 1.7.43 1.97.25 5.08 1.3 1.45.25 8 .65 3.2-.22.5.27 5.05 1 5.2.3 8.7-.5M61.47 400.37l-.05-.27.2-.08-.14.36m-7.43 190.57l-.05-.38.15.38h-.1m8.28 7.22l.07.38.08.2-.53-.45.35-.22v.02l.03.07m-.7.33l.17.98-.5-.9.3-.08h.02m88.18 192.4l-2.48-3.55.83.73 2.3 3.54-.65-.72m364.37-225.6l.63.6 5.1 3.5 6.15 3 1.63.45.87.73 13.55 16.62.7.7-17.55 4.45-27.1 10.25-25.5 13.55-1.82 1.23-5.58 2.57-13.8 8.7-7.8 6.05-3.17 2.95.52-.65-.2-1.9-1.25-5.45-4.65-13.55 1.3-6.6 1.9-20.08 8.85-7.42 5.6-5.6 5.05-5.95 4.52-7.03 2.88-3.17 4.5-6.3 2.95-5.45.4-1.55 1.3-.7 6.75-5.05 3.65-3.5.15-.18.45 1.03 2 3.2 6.45 7 6.9 5.3 1.98 1.1.12.1.07.02 1.06.58 7.82 5.05 2.62 1.4m50.43 232.85l-.3.25.18-.27 2.9-1.96-.55.53-2.23 1.45m-54.23 75.1l.03-.08.45.25v.03l-.48-.2m31.86 15.1l-.8-.58.82.3-.02.28m2.27.35l.88 1.13-1.63-1.36.7-.02.05.25m74.88 30.17h.07v.03l-.08-.02m-43.02 17.07h.15l-.65.25.07-.08.36-.2.07.03m6.55-.15l.73-.25 1.02.45.65.4-1.42.08.07-.23-1.05-.45m-161.95-7.95l-.3.27-.02-2.8.92 2.48-.55.05h-.05m3.68 1.9v-.13l.07.08-.07.05M248.93 804.9l3.27 12.85 1.48 7.6-1.73-7.1-.2-1.3-2.6-10.3-.22-1.75m-60.7 80.45l.02-.08v.06l-.03.02m22.9 60.23l.28-.06-2.95 2.23-1.92 1.1 4.34-3.15.25-.13m-78.47 9.75l-.15-.12-.35-.35.15.07.45.38-.1.03"/>
    <path fill="#FFF" d="M682.4 605.25l-1.65-1.35-3.4-2.2-4.05-1.65-22.65-2.2-.6-.13-3.22-.3 1.12.38 1.55.95.7.7-.95.05-.67-.05.64.35 6.33 2.2 3.6 1.95 1.7 1.2-2.05-.4-4.85-1.45-2.5-.1-3.8-.8-7.25-3.17-11.9-3.58-7.6-1.5-22.95-2.35-11.4.45-2.75-.27-4.95.07-19.1 2.1-15.1 3-18.7 5.15-21.9 8.1-15.28 7.1-17.57 9.58-20.8 13.62-1.1.47-8.85 5.96-11.1 10.87.45-.95 1.63-2.6-7.33 6.27-1.7 1.78-17.3 20.85-5.05 7.1.22-1.23-1.17 1.03-.75.5.1-.9.4-1.7 3.15-5.2 10.63-13.7-1.08.55.8-1.9 2.13-2.25-.03-.05.15-.45.8-1.2.25-.3.25-.4.7-.85 3.8-3.1.08-.02 2.52-2.68 11.27-10.18-.02-.17.07-.48-.47-4.42-2.78-13.93-.3-.17h-.02l-.05-.05v-.03l-.45-.77-.55-1.3-1.5-5.4-.45-3.7.1-1.85.8-1 .55.48 1.2-4.98-.25-.55.9-5.13-.05-.07 1.35-8.8.65-2.13.1-.52.1-.1 1.2-4.8.65-1.35 1.05-.45.65.95-.07 1.05 1.32-1.05 14.75-15.35.4-.5 4.53-8.7 1.02-3.35.23-1.25-1.53.75-7.6 2.7-1.3.3-1.4-.1-.75-.45.02-.02-1.07.27-2.18.27.08.08-1.15.95-2.35.1-16.95-1.05-7.1-1.6-4-1.63-1-.17-.42-.13-9.38-2.07-8.1-3.15-1.2-.6-.6-.6-4.5-2.65-2.9-2.35-1.15-1.15-1.5-1.9-1.5-2.8-.05-.13-.75-.97-1.6-3-.7-2.15-.15-1.1-.1-2.35.3-2.1.45-1.2.7-.5.5-.15.35.45.3.75v.55l-.1.55-.1 1.85.3 2.8.95 2.65 3.3 5.55-.13.33.18.27.2.23.15-.48.9-.05 1.55 1 .65.55 2.2 1.35 6.65 3.3.65.45 13.88 4.75 8.22 1.75 11.5 1h.05l1.3-.5 14.8-1.05 7.8-1.45 1.72-.55 14.08-7.65 8.2-5.67 8.15-10.13 9.23-13.8 1.77-4 1.38-5.07 1.52-9.63.15-10.9-1.05-7.65.03-.5-.03-.2v-1.5l.25-.45.05-.2.05.05.15-.25.85.55.65 1.4.65 3.65.45-.95 1.5-1.95.9-.8 1.2-.45h.8l-.1.8-.4 1.15-3.1 4.4-.75.55.55 3 .15 2 .05-.1 1.05 1.85-.35 11.85-1.15 7.2-.47 1.63.12.67-1.73 4.48 2.18 4.72 6 9.65 5.75 7.5.15 1.15-1.15-.15-1.6-1.15-1.35-1.35-3.75-4.5-6.1-10.1-1.25-2.9-1.05 2.75-6.85 11.8-2.2 2.83 3.22 5.42 7.53 7.92 15.45 11.66 5.25 2.52.53.38-.03-.13 1.05-.1 1.35.6.57.48.08-.38 1.15-.05 2.15 1.98.2.07 1.55 1 .35-.1.9.35 1.4 1.35 1.55 2.25-3.9-9.95-1.95-9.25-.05-.68-.15-.57-.9-5.1-.35-7 .35-2.08-.1-2.47 1.2-11.3.2-1.02v-.18l1.47-10.7-.42-12.1-3.05-27.55-.3-1.33-9.6 1.78-1.95.2-1.1-.1.7-.9 1.6-1.15 3.75-1.3 3.4-.5 2.8.1-2.7-12.2-4.9-14.55v.1l.6 6.85v1.5l-.2.9-.65-.43.75 1.08v.05h-.55l-1.1-.15-1-.3-.9-.5-1.7-1.2-2.25-2.05-1.27-1.7.02.35v.03l.15.77.5 7.35.4 2.05 1.4 4.8h-.05l-.85-.45-.45-.32.45 1.92-.82-.63.12.43.05.3-.25-.2-.85-.8-.1-.02 1.3 1.32-.55-.1-1.95-.7-2.8-1.65-1.6-1.45-3-3.3-5.25-8.05-1.2-2.63-.1 1.98-.82 1.35.47.75-.7-.25-.63-.32-.1.52.03.05h-.05l-.1.4-.38-.43-.67-.12-.7-.25-1.2-.75-.98-.88 4.93 12.33 1 3.35.25 1.75-1.2-1.35-3.5-6-3.65-8.85-1.35-5.05-.15-3.55.05-.2-.05-.15-.5-4.75.03-.27-.18-1.78.1-1.3-.9-.45-1.4-1.05-1.25-1.4-.55-.9-.18-.73-1.05-.97-11.07-8.2-2.1-2.2-1.75-2.6-.85-1.95-.3-1.05-.55-3.55.1-3.75.15-.75.3-.75.55-.7.05-.05.05-.4.3-.95.55-.85.85-.2.1.13.35-.33.45-.3.55-.2.55-.1.15.13-.75-1.13-1.05-7.65-.6-2.25.05-1.8.38-.48-.08-.77-11.8 15.55-1.2 2.25-2.2 5.8-.6.95-.8.4-.6-.65-.1-1.15.45-2.2.3-.8-.1-.6.65-1.85.32-.53 1.63-3.62.18-.27 1.27-2.88 3.9-6.35 3.25-4.25.95-.42-.05-.23.1-.5.15-.45.35-.65.38-.42-6.73-2.98-1-.55-3.55-2.45-.8-.7-1.45-1.55-1.2-1.75-.3-.65-.45-.3-2.35-3.88-1.07 15.98.47 11.4 1.25 9.8v4.15l-.5-.7-.68-1.5-.12-.07v.47l-.52-.8-.48-.3-.95-1.15-1.7-2.55-1.15-2.75v-.42l-2.48-5.78-.02.9-.2 1.15.1 1.8-1.1 6.7-.6 2.2-3.35 8.45-1.97 3.43-.18.62-1.2 2.45-2.13 3.15 1.03 1.27.6-.32 1 .15 3.88.98 2.37-.08 13.35 1.15.63.55h.47l3.95.35.2.2.85.1.4.15.1.1 13.25 1.8 4.5-.15 1.6-.2 2.35-.6.75-.3h.85l.65.45-.1.8-.7.7-4.25 1.3-5.8.4-1.8-.05-10.5-1.75-1.65-.4h-.65l-.3-.05-1.25-.05-.85-.15.05.15-1 .6-5.65-1.1h-15.2l-1.5-.35-.75-.7.72-.68-.07-.02-.38-.28-.32.18-.1-.05-.25-.25.07-.25-.32.05-1.9-1.85-1.35 1.4-2.1 1.6-1.2.6-1.32.35-2.03 1.25-1.9.6-1.1.1.07-.13-.12.03h-.5l.35-.85-.45.2v-.05l.6-.97-.35.32-1.2-.2-.25-1.1-.15-.2.15-.75.8-1.15 1-.95 1.6-1 1.2-.4.45-.07 1.55-3.38 2.3-7.95.05-2.4-3.4 4.55-3 3-5.05 3.8-1.32.72.27.73-.4.6.45 1 1.85 6.25-.7 1.05-.93-.25-.47.55-1.15-.55-2.43-7.63-.67.28-1.95.5-2 .25h-.32l-.28.1-2.47.55-1.83.65-3.15.48-.75.27-3.1.75-3.85.4-1.3-.05-1.3-.25-1-.35-1.1.15-1.2-.05-.6-.15 1.3-1.1 2.45-1.65 6.55-5.7 1.18-.75 1.9-2.85-.13-.1-1.15-.45-.78-.93-1.32-.97-.3-.5-.3-.15-1.52-1.05-.6 4.08.52 2.07.1.65v.75l-.05.45-1.15-.5-.05-.05-.7.1-1.35-.2-1.15-.6-1.8-1.4-.9-1-.57-1.05-.43-.55-.75-1.55-.25-.85v-.18l-.85-2.12-.5-2.65v-.45l-3.05 2.55-3.95 2.25-3.7 1.45-3.9.95-4 .4-4.05-.15-1.35-.4-2.15.1-1.2-.15-2.4-.65-1.05-.8-.45-.65.15-.07-.75-.33-.03-.03-.14-.05-.18.03-.95.05-.95-.15-1-.4-.45-.25.45-.3.85-.45 5.23-1.85 6.92-3.27-.9.02-4.5-.55-3.4-.95-4.4-1.8-4.1-2.25-2.75-1.95-2.3-2.1-1.2-1.55-.45-.75-.2-.45 2.13 1.22.22-.12 2.05-.1 3.55.3.47.23 7.33-1.06 2.15-1.3-.55-.62-1.5-2.4-.75-1.75-.5-1.85-.1-1.95.15-.95.38-.9-.13-.85.2-3.65.5-2.45.03-.07-5.68 6.22-1 1.4-1.25 2.4-1.7 5.75-.2.5-.25-.45-.1-.25-.2-.3-.33-.65-.12.9-.35.8-.65-.55-.8-1.3-.4-1.4-.35-4.25.07-.85-.02-.53-.4-1.97-.15-4.6.47-3.25-.12-2.35.98-5.93-.93-.27-.2-.1-.15-.05-.2-.1-.2-.2.1-1 .45-.95.25-.05h.25l.15.05h.2l.2.05.55.2.23.13.72-1.78 1.5-2.55.7-.85 1.38-1.27-.18-.13-.05-.05-1.8-.5-.8-.35-1.6-.9-.88-.7-1.75-.88-6.67 1.23-1.5.05-.95-.65.32-.68-.17.03-.55-.38-4.1.33-1-.7.7-1.05 1.6-.55 1.97-.18.08-.32.4-.55.75-.2 1.75-.18-.5-.64-.1-.08-2.35-2.95-3.28-2.88-7.47-4.2-2.07-.77 4.62 5.5-.5-.1-1.9-.82-.25.57-.75.15-.7-.3-.5-.4-3.18-3.4h-.12l-9.18-5.2-11.7-4.28-19.6-1.4-.02.03h-9.75l-6.9 1.35-10.05 3.5-7.35 3.45-7.53 4.38-15.15 10.72-6.82 5.9h-.13l-2.07 2.05-4.6 5.7-.95.6-.65.25-.1-.65v-.27l-1.65 1.77-1.25.95-1 .15-.1-1.05.7-1.4 1.45-1.85.35-.38-.05.03-.05-1.2.8-1.7 1.45-1.75-15.23 1.52-9.02 1.93-10.5 3.4-.75-.25-12.45 5.4-.45.85-9.13 4.7 20.43-2.45 1.3.4-.9 1-2.05.9-3.3.63-.75.42-5.4 1.7-16.9 1.95-2.5.8-16.95 4.08-19 7.22-.4.35-1.65 1.7-2.35 3.25-1.55 3.1-.75.6-.55.25-.3-.5-.25-.95.15-.8 1.15-2.8.53-.85-.03-.1.15-.52-10.73 6.57-.77.6-2.63 2.67.08.08v1.47l4.25 15.78-.2 2.95-1.8-2.3-.1-.35-1.55 20-.1 10.2.2 1.9-.15 1.35-.53.65-.02 8-.5 1.57.55 1.93.07 4.32.66 3.36.72.37 1.15 1.5 5.7 11 .55.5 1.17 1.4.83.5 1.8 1.95 5 6.88.95.87 1.35 1.55-2.15-6.35.4-1.2 1.2.45 1 1.65 1.7 5.2.2.05 1 2.25.15.75.05.75-.08.27.18.58.1.05.08.45v.02l.02-.02 1.35-1.05 1.05-.15-.02.28.37-.08 5.65-.5h1.4l.47.07.03-.72.65-2.9.65-1.35.38-.18.02-.32 6.9-5.4 2.9-1.4.95-.05.58.45.67-.1h.7l.1.03-.05-.13h1.85l1.42 1.13 2.03.92 3.9 2.73 1.25.67 7.05 5.75.8.9v.03l.6.42.9.95.15.95-.7.25 3 3.1.75 2-2-.65-4.92-4.55-.63-.25-3.8-2.55-.1-.38-.2.08-1.1-.6-5.85-4.05-1.75-.95-1.32-.43-7.13 3.93-.85.57-.05 1.03-.35 1.72v.03l-.25 2.5-.4 1.32-.05.28-1 2.95-.17 1.73 1.52 6.37.7 4.8v.45l.05.4-.13.6.53.45.7.9 1.1 1.95 1.25 3.1.35 1.43V531l.15-.8.6-1.5.45-.65 1.05-1.25 1.95-1.55 2.15-1.15 2.3-.65 1.5-.15 1.5.15 1.4.45.65.4.55.45.5.55.75 1.35.15.75.05.6-.1 1.35-.35.9-.2.25-.9-2.2-.55-.95-.3-.4-.6-.55-.75-.4-.85-.2-2.1.1-1.8.55-1.8.85-1.15.75-4.1 3.9.3 1.2.23 2.23.52-.98.65-.75.8-.7 1.75-1 1.9-.7 1.95-.4 3-.15 1 .05 1.55.5 1 .55-1.05.5-1.4.45-3.65.5-3.25.9-4.25 1.75-.38.05.08.2.05.43.05.07.4 1 .8 1.2.65.75 1.65 1.4.85-.08 10.87-3.62.38-.3 1.7-9.5-1.18-8.27q-.36-.07-.62-.33-.4-.4-.4-.9 0-.44.3-.8l-2.2-3.9.45-1.1 1.2-.1 1.37 1.73-.02-1.93.55-.8v-.6l1.15-3.05.32.82.38-.87.95 2 .07 3.77.38.18.35.57 7.6 1.53 3.02.97-.27-.52.75-.75 1.4-.05 6.1 1.52.1-.37.55-1.2.8-1.1.7-.3.05.02.25-.37 1.05-1.2 1.75-1.6.75-.43.45-.42 2.85-1.95 1.25-.4.95.4-.2 1-.85.9-1.88 1.5-.44.9.07.25-.5.58-2.63 5.27.33 1.65.3 3.9.65 2.45 1.55 3 1.3 1.9 2.35 2.63 2.95 1.62 5.5 2.05 3.45.8.25.32v-.27l2.18-2.25-.08-.2 1.7-2.85.17-.4h-.02l-4.25-2.4-5.6-2.3-6-1.9-.6-.4.65-.35 1.3-.25 1.35-.05 2.6.3 5.05 1.6 3.45 1.95 2.1 1.65.57.7.06-.13-1.73-3.8-.65-.27-6.9-4-3.4-1.4-.95-.2h-.8l-.05.05h-.1l-.1.05-.05.1-.1.1-.1.15-.2.4-.1.3-.05.35-.3 1.3-.1.25-.2-.2-.3-.45-.35-.8-.15-.8v-.75l.2-.7.15-.3.75-.8.65-.3.5-.15 1.45-.05 1.55.3 2.4.9 4.55 2.6 1.17.88-.77-2.28-.5-2.5v-2.65l.25-.95.13-.15-.53-.35-.25-1.15-.13-1.43-.42-.47v-.07l-7.5-4.23-2.35-1.95-.95.25-2.85.25h-.05l-.3.4-8.45 3.3-1.6.4-1.15-.45.38-1.05h-1.93l-5.7-.75-2.05-.65-1.95-.95-.9-.75-.1-.9.85-.4 1.05.15 4.02 1.13.43-.38.45-.07-.05-.08.75-.55 1.1-.15 2.95-.05 1.4-.2.1-.15 2.65-.75-.03-.07-.12-.08-1.4-1.7-1.9-3.3.05-.22-.25-.48-.6-.4-1.4-5 .18-.2-2.43-10.25.5-1.35 1.2.8.95 2.1.53 2.33.17.07.42 1.65.38-3.75.2-.75 1.25-9.1.8-2.25.85-12.05.05-9.93-3.9-12.77L144 427l-3.95-6.05-8.5-10.3-11.75-11.2-.45-1.25 1.35.15 2.05 1.15 1.28 1.07 1.22.48 8.5 7.25.68.75 4.72 3.85 7.05 7.75.23.33.12.07 1.85 2.1 2.35 3.4 2.65 4.95 2.9 7.95 1.35 6.68.85-.28 11.6 1.63.4-.18.35.25 13.05 1.38 6.75.22 6.6-.45 9.85-2.1 15.25-5.35.13.02 1.67-.97-1.25.3-4.9.65-4.9-.1-1.6-.35-.8-.35.8-.35 20-4.1 1.57-.93.88-.67 1.13-.65 1.72-1.35-.25-1.5.35-1.25.22-.47-1.87-5.23-4.95-10.1.1-1.7 1.22.6-.42-.68-10.05-6.32-5.05-2.52-.25-.08-1.6-.7-1.05-.68-2.15-1.07-.45-.6-2.15-1.4-2.55-2.35-3.25-3.95-1.5-2.95-.2-.85.75.45 8.4 7.75 5.03 3.55 5.07 2.15 7.33 4.4h.17l.78.18.62-.03.9.5.25.1.13.1.37.2.5.5 1.65 1.35.57.65.53.3 2.75 2.02.1.03 1.95.9 3.15 2.2 1.95 1.95 3.2 4.55 1.65 3.1-.25 1.75-.88-.4-.02.8h-1.35l-5.55-5.92 1.65 4.37 4.53 18.25 9.72 21.8 11.15 18.9.2 1.4-.25-.1 4.75 6.3.3.73 2.55 3.17 7.35 7.25 7.9 6.3 6.15 3.7 20.05 7.05.75 1.1-1.15.7-5.85-1.35-5.48-2-.25.05.93 1.3-1.7.35-2.7-.95-8.05-3.65-10.5-6.3.25 1.2-1.8-.6-5.65-5.9-6.6-5.3-1.8-2.15-.5-1.4-2.65-3.6-6.6-7.45-5.3-8.8-1.9-4.8-.02-.5-.48-.7-1.3-2.8v-.13l-.45-.82-5.65-14.15-1.38-5.88-3.44-4.9-.68.53-4.53 2.38-1.42 8.22-.15.5.05 20.95-.47 2.07.47 13.08 3 19.8 4.5 20.22 6.85 13.03 3.6 8.8.8 2.52 4.4 8.38 1.55 4.25-.13.33.03.02-.05 1.5-.68-.27.08.27.58 4.27.12.28.65 4.1.05 3.45-.2.27 3.37 3.43.88.45 10.8 9.3 6.2 6 16.95 19.7 3.6 5.42.1.13 9 13.7 5.4 9.48-1.1-3.88-.65-5.8.15-5.7.7-3.65 1.25-3.5 1.4-2.4-1.25 8 .05 7.15 1.15 7.35 3.5 11.05 10.85 23.05-3.9-4.9-1.98-3.3-.02.2-.6-.6-.6-1.02 1.75 5.27 3.2 13.95-.08.75 3.93 12.55.6 5.7-2.13-4.15.68 2.65 1.25 10.3-.1 1.7-.7-1.55-5.4-24.05-5.2-17.77-10.72-21.25.42 1.17.25 1.45-1-1.1-14.2-24.25-11.05-14.35-5.3-6.1-13.08-13.1-.62-.35-4.6-3.7-32.33-29.3-7.62-6.05-11.13-7.65-22.77-14.02-2.25 2.17-.52-.05-.23.35-.45.5-.95.85-1.05.7-.6.3-.65.15-.65-.75-.03-.17-1.27.17-.5-.23-.5.58-3.15-.35-2.65-.7-.75-.3-2.1-1.15-.43-.33-2.12-.67-3.1-1.65-2.13-1.78-1.32-.37-.7-1.38-.95-.72-1.4-2.4-.53-1.35-2.32-2.8-.55-1.13-15.3-3.77.25 2.05-.15 3.75-.45 2.5-.55 1.5.1 4.9-1 1.2-.03-.02-.12.4.15.17.05.85-.25.45-.2.25-.2.15-.2.2-5.4 2.85v.05l-1.05.45-2.5.75-.83.13-1.27.67-1.05.4-3.15.9-1.05.15-.15-.15-.65.25h-.7l-1.3-.35-1.2-.6-1.05-.8-.07-.07-.38.22-.5-.2-.45-.55-.28-.55-.62-.25-.6-1.05-1.65-8.77-3.15-4.88-.4-.5-4.72 3.47.47 4.88-.2 5.2-.3 2.08.1 1.57-.4 6.1-.3 1.5-.98.52-.17.28-.25.25-.05.15-.65.8-.33.08-.47.47-.22.18-.28.27-.6.75-1.35 1.2-1.65.9-.4.15-.15.1-1.65.85-.1.8-1 .4-2 .55-2 .15-.95-.05-.93-.2-.12.15-2.42-.05.07.75-.1 2-.55 2.2-.5 1.2-.38.65-.07.25-.95 1.85-.8 1.2-1.4 1.6-.65.52.2.83-.7.75-1.6 1.3-.33.18.48.77.65 2.2.2 1.05.1 2.1-.05 1.05-.45 2.05-.1.22-.15.73-1.05 2.9-.7 1.2-2.6 3.35-1.75 1.6 16.3 25.2-.1 1.45 11.8 17.05L96 641.4l.1 1.65-1.35-.95-11.08-15.63.28.98.05.65-.65-.05-1.05-.4-.8-.7-1.38-1.75 3.48 8.5 2.95 10.35.48 3.3.77 2.45.1.6v.05l3.25 23.85.45 1.85-.13.55.38 2.77 2.95 8.03.1 1.65-.3.95 5.1 16.5 7.1 16.75 2.25 4.1.3.25 11.6 15.8 12.77 20.13 2.46 2.7-.13-.73h.05l1.6 1.5 2.1 3.23 8.57 9.44-.47-.77-2.35-5.15 1.7 1.77-1.8-4.42-.8-3 1.85 2.5.3.55 1.55 1.55 4 6.7 1.58 2.08.34.32-3.12-6.1-.35-1.35-.05-.35.35.15.55.4 1.55 1.7 8.75 15.25 11.95 25.6.97 3.02 3.28 6.38 6.5 18.3.32 1.58 7.63 20.27 2.6 12.45.15 2.15-.3 2.2-.35 1.1-.1-.25-.5.7.2-.05-.23.2.03.08 5.72-1.9 1.58-.78 2.45-.2-.1.13.15-.08 5.45-3.6 1.25.2-.05 1.3-3.05 2.4.95.15-1.3 1.6-4.75 1.73-.3.62-1.55 1.4-13.45 7.1-26.7 12.6-11.75 7.65-2.95 1.3.5-1 .95-1.38-2.35 1.53-2.1.95-1.15.35.07-.15-4.27 3.2-1.8.3.27-.88-6.37 2.98-2.85.9-3.1.5-.45.15-2.95.45h-.15l-.6.6-2.1.35-1.85-.07-2.1 1.42 3-.9 2.45-.4H120l.25.3 7.15-.7 5.6-1.55 1.2-.2.9.35-.2.9-1 .9-.93.38 1.53-.03.88.13 6.2-.3.82-.15.5-.23 1.05-.15h.03l.9-.3 1.3-.8-6.28 1.55-1.75-.7 1.3-1.3 9.4-2.85 5.45-2.45 3.85-2.3 1.4-.65 1.1.05-.15 1.05-1 1.25-2.6 1.9-5.7 2.88 6.1-1.28 1.1-.35 2.8-1.75.65.17.6-.37.55-.45.75-.25.75.25.15.65.1-.05.95.2.05.95-.75.95-1.95 1.5-1.75.8-.6.4-.8.4-.85.75-1.8 1.2-2 .9-3.15.95-2.78.43-1.8 1.17 4.18.5 2.7.7 1.65.65 2.05 1.15.55.5.45.6.35.65.15.75-.05.75-.2.7-.4.6-.65.7-1.1.75-.9.4-1.7.55-1.4.1-.35-.05.05.05.4.7-.85-.15-8.25-2.95-9.35-2.25-2.85-.95-.7-.35-.15.75-1.25 3.8-.3 3.08.35 3.14 1.25 2.13 1.93 2.25h.02l.6.2.25.65-.03.05 4.78 2.55 1.93.65 4.67 1.05.2.2.75.2 6.6.63h.03l.57-.13.07.08 4.28-.43 1.35-.25 5.2-1.65.75-.55 8.1-4.25h.03l1.1-.58.07-.37 2.85-8.35 1.5-1.2.4 1.33.8.62-.8 3.9-1 2.23 1-.73 2.25-1.15.8-.3.85-.2.75.75-.05 1.05-2.65 1.4-6.15 5-.05.5-.2.25 5.9 1 5.8.1 1.4-.1 3.5-.65 5.58-2.02.12-.28.6-.7.25-.15.65-.5 8.63-4.23 10.12-6.75v-.02l.1-.05.45-.3.28-.08 4.72-2.42 5.9-2.05 2.1-.3 1.2.6-.8 1.1-8.22 3.4-.2.17 2.72-.12 1.52.18 19.33.17 5.75-.7 3.35-.98 2.75-2.22.35-.35v-.05l.32-.3 1.35-1.57-.02-.13 2.02-1.93-.07-.42.15-1.45 1.6-4.57-.45-17.1-.45-3.58-.1.65-.8 2.7-1.1 1.15-.6-1.5 2.45-17.65.15-.25-.43-2.2-.42-.35-1.35-1.6-3.1-5.25-9.75-25.7-.15-1v-.55l.55.15.9.55.75.8 4.92 11.38.33.12-.75-3.9-.43-7.2-2.62-12.65-.1-2.17-4.75-20.38-.05-.3-.1-.05-2.05-7.95-1.38-9.45-2.52-7.8-1.4-6.85-1.05-11.7.05-2.35.28-1.85-.03-2.2 3.15-23.55.25-12.7-1.65-13.6-2.7-10.75-7.6-21.02-1.95-1.93-19.72-32.1-5.68-7.3-1.35-3.1 1.45 1.08-11.2-12.28-1.5-2.2-.6-1.15 2.27 1.27-.67-1.27 1.15.7 1.8 1.43v-.28l1.45.2 1.55 1.55 5.18 6.47 1.37.68 8.5 9.3 9.35 13.65 2.75 4.65 6.7 9.6 8.15 15.2.15 1.02.15.28.8 2.08 1.05.82 3.78 12 .52 1.1.13 1 .67 2.65.35.9.9 3.9.6.8.85 1.7 2.1 13.6.25 14.55-1.8 14.45-2.7 9.75-.4.98-.2 1.37 8.8 3.85 9.1 2.45 3.75.52 2.7.08 10.6-.8h1.2l-.25.3-.65.5-1.45.8-2.65.85-2.95.5-5.9.4-4.03-.35-3.57.15-1.23-.25-4.72-.4-7.25-1.75-1.08-.4 1.1 11.43.73 2.82 13.65 5.45 9 2 9.8.7 12.15-.7 9.65-1.65 9.65-2.55 9.9-4.05.5-.13 3.17-1.92 3.38-9.7.1.45.65-1.9.35-.55 2.45-18.8.1-4.85-1.2-17.2.4.5.65 1.1 1.4 3.85 1.15 2.3 2.3 11.3.35 5.1.75-1.7.6-.65.1.85-2.15 13.1-1.95 6.8-.7 1.45-.2.3-.2.8-3.6 21.85v1.45l.5 5.9 1.7 6.6 1.05 2.6 1.55 2.45 4.25 4.85 5 4.15 2.4 1.55 2.95 1.25 8.25 1.85 7.4.7 3.2-.4 2.2-1 2.3-1.55 1.35-1.35 1.75-2.45 1.45-3 1.6-5.75.45-3.85-.1-11 .05-.7.4.6 1.45 4.05.55 4.3-.15 5.6-1.1 5.25-1.35 3.55-1.85 3.1-1.5 1.75-1.65 1.45-.45.3 6.1-.8 5.95-1.45 2.6-.9 1.85-1.15 5.05-4 2.6-2.6 2.5-3.7 2.35-4.85V818l1.95-7.5.5-5.2-.25-7.55-3.55-14.2-.85-1.7-1.85-5.5-1.9-8.65-.4-4.95.1-1.65.1-.4-.05-.15.15-4.55 1.45-7.45 1.55-4.25 1.65-2.6.6-.6.05.85-.15.9.5-1.25 1.2-2.05 1.6-1.85.5-.4-.1.65-2.55 8.6-1.25 16 5.5 19.4.2 1.1 1.8 4.1 2.4 9 .22 2.25 2.83-.65 11.7-4.52 12.9-7.33 7.28-6.02-4.13-.28-.13-.02-1.77-.13-1.07-.2-4.63-.05-1.1-1 .03-.03-.13-.02-6.15-2.1-1.05-.6-.08-.05-.12-.05-3.2-1.7-.55-.55-3-1.2-2.45-1.55-1.8-1.6-1.15-1.45 1.8.45 8.4 3.52 9.9 2.43 11.6 1.1 6.95-.35 12.4-2.25 2.25-.15.13.05 18.12-6.38 5.18-2.47h-.33l1.3-1.3 10.35-4.98v-.02h.07l.86-.43 9.94-5.92 1.83-2.2 32.6-22 19.3-14.95 8.8-8.35 4.38-3.02 1.84-1.63-5.17 2.4 4.4-4.35 12.63-8.8 6.87-6.85 5.68-4.52 1.37-1.66.05-.27.75-.75.13-.07 4.27-4.48 1.55-.7-.5 1.65-1 1.3 8.2-4.25 1.1-.8 9.15-4.5.7-.15 1.4.2-.2.5-.1.17.6-.02-.25 1.1-1.2 1.45-21.38 16.03-.77.82-21.7 18.52-6.3 6.43-13.08 11.25-.12.15-12.6 11.95-10.15 8.5-18.15 13-7.65 4.7-15.85 8.3-2.13.92-.52 3.93-1.2 1.7-.02-.05-.13 3.35-.55 1.18-.05 1.12-.85 1.05-.22-.23-.03.03-.57.88-.18 2.47-.9.65-.9-.65-.15-1.35.07-3.15-.02-.05.05-.98-.75 1.2-2.03 4.83.63-.4h.05l-.5 1.9-2.27 3.5-6.28 11.75-1.85 2.7-.2.25-.25.2-.35.2-.5.08-8.7 15.52-19.65 30.33-8 15.22-6.8 10.25-1.55 1.6-1.1.45-3 6.3-.9 2.45-3.3 13.3-1.7 13.85-.45 2-.7.95-.7-1.05-.2-2.05-1.2 7.45-.2 4.2-.2 1.02.45 3.06 2.38 1.8.37-.03 7.27 2.17 6.33 1.38 19.57 2.77 10.33.18 10.3-1.25 13.4-3.4 1.4.55-.8 1.25-2.2.85-4.18 1.1 18.03-1.45 2.75.4-1.32.55 1.47-.35 2.2-.2.8.52.3-.07 9.5-.15 1.77.2.2-.02-7.97-3.48-2.15-1.5.9-.05 1.75.1 3.3.9 10.25 4.32 2-.12 29.1 4.43 13.13-5.25.17-.13h.15l1.2-.48-2.75-.17-1.05-1 1-1.05 4.83-.2.02-.05.55-.45.8-.05.47.55 5.78.7 2 .7.32.45.18.03 2.5-.03 1.1 1-.17.18 7.07 4.44 4.05.48 6.85-.8 4.35-1.6 4.95-3.1.45-.17.38-2.75-.48-3.53v-.2l-.2.1-.75-.3-.25-.6h-.1l-.05-.2-.2-.45v-.15l-.05-.05-1.35.5-2.9.55-4.8.2-3.5-.5-1.45-.45-1.35-.65-1.15-.85-.55-.55-.8-1.25-.25-.7-.15-.75-.05-.8.1-.8.2-.65-.2-.23-2.4-1.12-1.05-.35-.27-.05h-2.65l-.18.2-1.65.05-4.95-.55-.7-.2-2.15-.15-1.05-.25-3.1-1.05-2.4-1.35-.42-1.02-.63-.43-.85-1.1-.3-.5-.1-.1-.77-1.25h-.03l-10.95-3.25.05.15-1.2.5-3.15-1.4-4.05-2.45-.55-.05-20.55-13.75-6.1-3.25-5.2-2.1-8.4-1.45-3.1-1.05-1.65-.85-.55-.9-.15-.45-1.4 2 .3-3.13-1.15-.47-.23-.13-.67 1.08-.05-1.2.02-.3-.22-.15-.05-.05-1.35-.55-1.8-1.5 1.28-.08-.68-.92-.25-.65.02-.05-.87-.85-.4-.95.3-.85.85-.05.85.45.65.55 2.55 1.63 1.65-4.73 5.65-11 5.65-8.55 10.1-12.2-1.25.6 1.15-2.65 11.9-12.6 7.55-9.15 7.55-7.25-3.75 1.45 3.3-3.5 8.6-5.67.35-.28.2-.08 15-9.87 16.9-12.35 20.85-17.45 9.85-9.3 18.1-20.05 5.53-7.15.12-.35.35-.38 15.55-23.37-.93 2.75.43-.45.95-.75-.3 1.2-.6 1.55 21.35-19.27 10.08-14.83-.03-.1v-1.25l-1.6-14.35-.05-3.35.1-.23-5.4-24.62-4.3-10.5-1.75-3.38-2.4-2.52"/>
    <path d="M672.25 643.3l-.4-.45 1.65 10.1-.2 6-1.5 6.2-4.25 10.95 3.1-5 2.65-6.15 1.55-5.75.35-3.2-.2-5.4-.75-3.25-.8-2.1-1.2-1.95m-348.2-259.9l.4-.95-.8.65-8.35 8-7.15 5.25-7.65 3.95-8.2 2.75-18.85 3.3 8.55.55 7.35-.85 8.75-2.2 8.25-3.6 4.65-2.85 5.8-4.7 3.9-4.25 3.35-5.05m-175.15 12l1-2.2-2.2.95-5.85 5.15-2.95 3.4-1.1 2.05-.3 1.2 1.1-.55 1.8-1.3 8.5-8.7m142.05-55.1l9 3.35 8.45 4.45 4.8 3.25 8.7 6.8h.05l-1.85-2.55-4.15-4.55-4.7-3.75-6.8-4.15-9.05-4-13.5-3.45-8.05-.95-8.15.2-1 .2 14.85 2.45 11.4 2.7"/>
    <path fill="#67272F" d="M296.1 478.8l-1.8-.15-1.85.2-.95.35-.45.25 5.25 1.65.7.3 1.85 1.1.6.45 2.1 2.05 2.55 3.9 3.45 8.15.3-2.7-.15-1.8-.4-1.75-1.1-2.95-1.25-2.35-1.55-2.15-1.85-1.85-.7-.55-3.05-1.65-1.7-.5"/>
    <path d="M293.15 487.85l-.35.3-.3.35-.25.4-.2.45-.15.9.2 1.3.2.4.45.7.55.6.35.25.75.4 1.3.25.85-.1.9-.35.4-.25.35-.35.25-.45.2-.5.1-.6-.05-.3-1.2.25-.3.1-.3.05-.2.1h-.2l-.2.05h-.4l-.65-.2-.15-.1-.1-.1-.15-.1-.1-.15-.15-.1-.1-.15-.05-.15-.1-.15-.05-.15v-.15l-.05-.15v-.65l.15-1.05.15-.5v-.35l-.35-.05-.55.1-.5.2"/>
    <path fill="#3F1A22" d="M285.65 483.9l-.2.15-.35.35-.75 1.45-.2.95-.05.95.1 1 .55 2 1.6 2.9.7.95 2.4 2.55 2.85 2.25 3.05 1.7 2.05.85 2.05.55.95.15h1l1.8-.3 1-.45.95-.75.25-.3.1-.2-.2.1-.7.2-.65.1h-.9l-1.45-.15-2.5-.65-3.6-1.7-2.65-1.8-3.2-2.9-1.9-2.3-.95-1.6-1.1-3.1-.1-.75v-1.5l.05-.45v-.25"/>
    <path d="M163.8 582.8l4.4 4.65 3.75 3.05 7.1 4.3 1.6.7 5.05 1.7.85.2-14.6-9.85-5.65-5.5-2.9-3.7-3.9-6.95-.65-1.5-3.85-12.4-.05 1.1.5 5.9 1.3 5.3 1.9 4.75 2.35 4.35 2.8 3.9m120.65-62l-.6-.95-1.15-1.05-.7-.4-.8-.2-.65.1-.25.13-.6-.08-4.6-.05-1.65-.45-.95-.4.1-.2-.1-1.9-.55-1.8-.6-1.3-.85-.65-.65-.2-.3.65-.15 1 .8 3 .75 1.65.13.07.07.38.15.4.3.5.6.55 1.45.85 1.6.4.85.05 1.7-.1 1.55-.35.75-.25.27-.2.13.2 1.3 1.05.55.35.22.1 2.83 4.75 3.15 3.95 2.3 2.3 1.05.75 1.2.6.65.25-.25-.65-1.25-2.25-7.82-10.25.02-.35m28.85 21.8l-.75 1-1.1 2.15-1.1 3.5-.2 2.4.3 2.4.35 1.2.5 1.15 1.05 1.3 1.15.85.35.15-.05-.35-1.1-4.6-.1-2 .05-1 .35-2 1.85-6.65v-.7l-.6.35-.95.85m4.15-3.7l5.35-2.6 11.6-4.15 1.4-.7-1.15-.2-2.4.1-5.6 1.45-4.8 2.1-2.3 1.45-2.15 2.05-.5.65.55-.15M262 528.95l-1.2.7.9 1.05 2.05.65 2.1.35h1.7l.7-.25v.45l.95 2.7.7 1.2 3.55 4.35 5.85 4.95 2.5 1.3 1.4.45-.8-1.2-13.55-14.1-.3-.2.15-.05.55-.5-.5-.5-1-.6-3.6-.7-2.15-.05M260.9 544l-1.4-.95-.9-.3.05.95.6 1.6 1.9 2.55 4.05 3.85 1.65.6-.4-1.75-4.45-5.45-1.1-1.1m14 15.8l-.55-.7-.15.85.2 3.4.35 1.6 1.6 4.7 3.1 5.8 2.95 3.95 1.25 1.15 2.2 1.4-1.1-2.3-4.05-6.75-5.8-13.1m35.45 5.1l-2.15 3.5-1.55 3.55-.85 3.25-.2 1.85.05 2.8.6 2.8 1.75 3.6 1.4 1.75 1.8 1.5 1.65.95-3-5.2-1.1-2.45-.4-1.55-.3-2.4.2-3.2.7-2.85 3.45-9.1.2-1.1-.85.7-1.4 1.6m3.4-4.4l4.3.2 19.25-1.8 6.05-.15 5.75.6 5.4 1.45 5.8 2.6-.45-.65-1-1.05-2.25-1.8-2.5-1.3-4.05-1.3-5.8-.75-6.1.1-13.45 1.65-10.95 2.2m4.9 29.85l-4.3 1.3-.65.3 10.15-.1 20.45.7 11.05-.8 1.4-.3 2.85-.95.65-.35-.75-.1-32.75-.45-8.1.75M83.7 436.45l-1.9-2.65-1.45-2.7-2.55-7-.1.5-.1 1.9.05.95.9 4.3 1.7 3.8 2.6 3.55 3.4 3.3 6.65 4.5 21.25 10.75-4.35-3.95-18.3-10.55-4.75-3.55-3.05-3.15m47.75 148.2l.3-6.3-.4-3.95-.3-.9-2.75 23.4-.45 9.15.15.95 3.45-22.35M143 611.1l-.45 6.4.35 6.3.8 4.65 1.25 3.9.85 1.85 1.6 2.55 1.3 1.45 2.55 1.7.5.2-.35-.45-3.75-6.15-1.15-2.7-1.6-6.3-1.65-14.5-.25 1.1m167.25-15.95l-.9 1.6-.55 1.65-.4 2.5.05 2.4.5 2.75 1 3.05 2.1 4.45 1.9 2.85 1.8 2-.15-.9-.9-3.4-2.45-5.8-1.2-4.15-.25-1.75-.05-2.1.55-6.2h-.05l-1 1.05m-2.75 22.25l-.25-2.25-2.55-6.95-1.5-2.5-1.85-2.35-1.95-1.8-.6-.4-1.4-.75-.75-.3-.8-.15h-.45l.2.4 4.8 5.65 2.1 3.4 2.9 6.4 2.05 3.2.05-1.6m13.5 3.45l1.05.7 2.25 1.05 9.85 3.3 10.35 1.9 8.5-.05 2.6-.45 3.95-1.3 1.95-.95-10.35.9-5.7-.35-24.45-4.75m-52.35 6.35l-2.35-2.4-5.15-4.2-7.55-4.4-14.2-5.9-20.4-5.15-15.6-1.85 36.95 9.9 2.1.75 15.85 7.15 10.35 6.1m16.25 80.2l2.65 5.6 5.55 8.45 12.4 13.8 5.9 4.85-1.7-2.55-12.7-15.2-5-6.7-8.65-15.1.25 2.35 1.3 4.5m121-265.75l-.3-2.35-.35-1.15-.5 1.1-.7 2.2L401 457l-14.68 40.23-.97.92-4.95 11.3-.15.25-3.2 4.3-7.05 6.9-3.88 3 .03-.1-.6-.05-1.05.15-4.15 1.85-2.9.75-22.97-.6-6.43-1.25-1.7.2v.05l1.3 1.1 5.95 2.1.42.07.83.78 4.85 1.55 2.75-.25 2.63.6.72.9 1.65.15h6.8l5.1-.6 3.35-.85 4.35-1.8 1.8-1.15h.05l.95-.5 3.65-2.8 2.85-2.8 3.55-4.7.78-1.43.37-.54.2-.03.95-.9 4.2-8.85 1-3.1v-1.38l11.6-28.42 5.35-19 1.55-11.4m-36.15 91.85l-.55-.5v.05l.1.95 1.15 6.35.15 5.95-1.85 10.8 1.25-2.25 1.15-3.1 1.2-6.4.05-3.2-.35-3.15-.8-2.95-.65-1.35-.85-1.2m-6.65 57.1l-.4-.3 3.45 11.25.85 6-.05 5.95-1.35 8.55.3-.5 1.35-3.05 1.3-5.85.15-6.4-.9-6.25-1.25-3.9-1.1-2.35-1.65-2.45-.7-.7m10.65-28.4l-4.05 1.35-.75.45 6.55-.25 3.2.3 3.95 1 .95.35 16.1 7.75 3.3.7-3.65-2.55-13.65-7.75-3.95-1.25-3.25-.45h-2.3l-2.45.35m-7.25 4.35l-.6-1.1-.75-.95-.55-.35.05.85 1.1 6.6-.15 4.9-1.45 7.65.4-.6 1.35-2.55 1.15-3.95.4-2.75-.2-5.3-.75-2.45m.45 22.6l.45.15 4.85.95 14.8 4.2 5.6.85h1.1l2.25-.25 2.35-.6.6-.25-8.95-1.35-11.45-3.4-6.55-1.1h-1.1l-2.2.25-1.75.5v.05m35.7 4.15l.7-.2 1.25-.65 1.1-.95.9-1.05.7-1.2.65-1.8.2-1.5-.15-2.2-1.3-4.5-1.2-2.15-.45-.4-.1.95.1 1.55 1.25 6 .1 1-.05 1.5-.1.35-.05.35-.15.35-.1.35-.15.3-.45.65-3.05 3.3.35-.05"/>
    <path fill="#67272F" d="M454.15 533.55l-2.45-.15-3.15.5-1.35.45-1.8 1-1.05.9-.75 1.1-.3.6-.15.65v.65l.1.35.3-.2 1.75-1.4 1.8-1 1.6-.6 1.1-.25 3.3-.3 3 .4 2.8.85.65.35-.2-.8-.25-.5-.35-.5-.9-.8-1.1-.6-2.6-.7"/>
    <path d="M450.15 540.1l-.2-.2-.6.6-.2.45-.1.45.05.45.1.4.2.4.5.6.35.3.55.3.7.2h.75l.7-.1.8-.4.6-.55.25-.3.4-1.2-.05-.85-.35-.8-.35-.35-.5-.25-.35-.05-.15.3-.3 1.15-.2.55-.2.2-.1.05-.05.05h-.1l-.05.05-.2.05h-.4l-.2-.1h-.1l-.3-.3-.05-.1-.35-.35-.5-.65"/>
    <path fill="#3F1A22" d="M460.05 543.75l.1-.65v-.6l-.05-.35-.2.25-.4.4-.75.6-2.15 1.1-1.6.45-1.8.2-2.5-.1-3.45-.85-2.35-1.1-.9-.6-.3-.15-.05.3.05.6.2.6.3.55.9 1 .55.4 1.2.7 2.05.7 1.4.3 2.25.15 1.45-.1 1.45-.3 1.95-.7 1.15-.7.5-.45.75-1.05.25-.6"/>
    <path d="M406 557.45l1.45 7.9.2 2.25-.15 2.3-.3 1.3-.3.8-.95 1.75-.4.55-.2.35.25-.05.5-.25.95-.75.8-1.05.35-.6.55-1.25.6-2.9.05-1.25-.25-2.55-.95-3.5-1.1-2-1.1-1.05m77.35 78.1l-20.3 7.45-8.95 4.75-1 .75 40.7-13.35 32-8.2 4.8-1.55-15.05 2.2-7.5 1.55-24.7 6.4m-76.3-29.7l-.5-2.7-1.05-3.2-1.3-2.3-.55-.75-.65-.65-.4-.3 2.35 8.65.4 2.6.05 2.9-2.4 11.25-.05.45.3-.45 1.45-2.7 2-6.4.4-3.25-.05-3.15m1.5 45.4l-.65-5.4-3.45-14.65-1.6-4.45 3.85 24.05.05 8.1-.75 4.65-2.85 8.85-8.75 19.45 3.6-6 6.95-14.35 2.7-8.55.95-6.65-.05-5.05m-30-23.85l5.8.4 1.95-.05 7.15-1.4 1.85-.8 3.15-1.95-11.35 1.95-5.7-.15-11.3-2-1.05-.05.7.7 3.25 1.85 5.55 1.5m-13.9.95l-.1-.2-.05-.15h-.05l-.1-.05.05-.2.2-.3.7-.7-.2-.15-.35-.05-.45.15-.45.35-.4.55-.4 1.3.05 1.1.4 1.2.95 1.8 1.05 1.2.85.65.45.2h.25l.65-.4.55-1.1-.05-.5-.1-.3-.1-.2-.25-.35-.45-.35-.25-.15-.35-.15-.2-.05v.25l-1-1.4-.8-1.7-.05-.3m.5 8.5l-.55-.25-.3-.1-.65-.3h-.5l-.35.1-.15.5v.7l.15.45.5.65.3.25.7.3.5.1.75.05.85-.05.95-.4.6-.45-.2-.55-.6-.5-2-.5M334.55 680l-.25.6-.25 1.25-.25 2.5.25 4.3.45 2.55-3.15-11.6-.5-1.05-.15 1.15.05 3.1.02.2.03 1.3 2.75 13.85.1.3-.05 1.75.4 2.52-.9-2.12-.85-1.3-.15 1.55.3 3.05 3.45 10.43-.05.42-.85-1.25h-.05v2.75l3.75 13.95 1 2.4.75 1.2.25-1.4-.05-2.7-.6-2.85.55 1.2.18.15.47 1.25.23-.6.14.15.03.7-.65 4.5-.05 1.9.5-.45.9-1 .65-1.1.32-.95 1.33-1.65-1.4 3.85.6-.3.7-.48v.03l.45 1.5 1.2-1 1.05-2.4.55-1.98.73-.72-.58 1.7.25 1.7 1.35-1.05 1.05-2.13-.35.93-.45 1.75 1.3-1.25.27-.35-.07.25-.25 1.8.05 1 .85-.55 1.2-1.4.85-1.6.95-2.42.3 2.67.8 1.4.9-1.4.4-2.75v-2.8l-.32-2.55.7-1.45-.18 5.9.6 2.6 1.1-2.45.55-3.42.23.97.22 2.15 1 3.55 1.15 1.65.5-1.95-.68-5.78.23.73 1.1 2.4.8 1.1 1 1 .6.45-.1-.7-.9-3.42.55-1.48.05-.5.9 3.25 1.1 2.55.75 1.25.25-1.45-.02-.65.77 1.4.65.9.7.75.9.65.95.4.55.15-.38-1.13.08.13.9.7.13.08.32.57.45.5.1-.65.07-1.7.43 1.85.55 1.1.7 1 .4.45.25-1.8-.25-4.15.3.18.2.32.7.85.23-1.02.12 2.72.85 2.35.85-2.3.2-2.65.25.2.05.4.45 1.15.55-1.1.7-2.15.07-.5.28.4h.05l.4-.95.35-1.85v-.03l.82-1.92.33 1.1.32-.77.23.32.15-.6.15-1.05.1-.25.13-.88 1.52-2.12 2.45-5.65.7-3 .1-1.55-.1-1.5-.25-.8-.45.7-1.18 2.72.48-2.82 1.35-3.5.6-3.1.05-1.65-1.05 1.25-.03.05 2.93-13.55.05-4.5-.2-1.15-.5 1.05-.1.38-.35-4.78-.35-1.35-2.8 17.2-.2.82 1.2-8.57-.1-1.98.2-1.57-.05-3.05-.4-2.45-.25-.6-.2.6-1.92 8.68-.13-.63-.25.35-2.38 6.88-.07-.58-.2-.5-.15-.1-.05-.05v.05l-.1.4-3.07 7.88-.23-.48-.35.33.2-.73.15-2.35-.2-1.25-.8.95-2.95 6.4-.3-1.35-1.55 2.35-.45 2.43-1.05-2.48-.8-1.15-.75-.65-.13-.05-3.22-9.9-.4-.75-.35.75-.15.92-.05-.12-.4-.55-.3.65-.45 3.2-.68-3.58.08-6.27-.7-2.95-.45 1.3-.35-1.4-.95 2.9-.1 1.8-.4.85-.45 1.4-.35 2.3-.63 1.6-.07-.9-.25-.65-.45.55-.65 1.2-.82 2.55-.18-.35-.22.28 1.32-3.48-2.07 2.95-.23-.65-.45.55-.65 1.1-.73 1.95-1.52 2.15-1.7 4.45 2.65-9.8.05-1.6-1 1.25-1.45 2.65-.8 2.7-.1-1.15-.25-.6-.77 1.18-.18-.68-.35-.65-.35.65-.9 3.38-1.3 1.97-1.22 1.45.72-4.75-.15-.7-.55.45-.75 1-.52 1.1-1.18-3.75-1.15-2.25-.75-.98-.9-2.82-.45-.8-.25.85-.2 1.75-2.15-6.8-1-1.8-.05 2.05 1.7 8.1-1.03-3.38-2.77-13.02-.2-.6"/>
    <path fill="#FFF" d="M366.93 708.23l.55 2.62.12-.73-.35-.62-.3-1.23-.02-.04m9.25 7.27l-.23.35-.05.1-.1.1-.55.35-.1-.1v.9l-.17.35.2.63.07-.18.4.95.63-1.63-.13-1.72.03-.1m2.8.9v.05l.1.8.05-1-.15.15m-22.83-12.5l.23-1.73-1.06 2.88.78-.9.02.27.08-.32-.05-.2m3.42 1.3l.38-2.63-.72 2.13.34.5m-7.72 3.03l-.65.92-.8 2.98 1.45-3.9m-4.92 1.35l.1-.43-.2.2.1.23m2.9 4.12l-.35.65.2-.27.14-.38m12.03.5l.05.17-.05-.25v.08m1 3.1v-.07l-.45-.9 1.15 4.32.02-1.9-.72-1.45m-20.3-.2v-.02l-.13-.16.13.18m11.22 6.15l.23-.7.05-.07v-.23l.3-1.3-1.7 3.85-.3.5-.3 1.03 1.72-3.08"/>
    <path d="M475.5 704.9l-3.25 1.6-7.85 5-21.9 9.7-6.2 3.85 4.1-1.05 19.15-7.65 6.65-3.2 6.95-5.4 2.55-2.6.35-.45-.55.2m140.75-56.1l-7.4-2.1-33.9-13.8-10.05-3-9.75-1.3h-2.65l-4.7.6 11.65 1.65 7.4 1.85 13.3 4.9 14.4 6.2 16.15 5.7 5.15 1.1 7.25.6 4.7-.25-11.55-2.15M480.6 841.05l.3-1.5-24.05 37.7-.65 1.3 5.2-5.15 5.25-6.95 10.6-17.25 3.35-8.15m-26.05 46.05l.15 1.95.4 1.95 1.2 3.15.95 1.7 1.35 1.45.95.6-.05-1.1-2.4-8.1-.7-3.5-.35-1-.35-.55-.4.5-.45.95-.3 2m19.25.5l-.75.05-1.25.45-1.4 1.2-1.6 1.8-1.3 2-.05 1.45 1.4-.35 1.75-1.6 2.65-3.05.5-1.2.05-.75m-287.45 22.3h-.05l-.9-.25-1.3.3-16.65 6.75-.2 1.1.95.65 13.5-4.75 3.5-1.85.95-1 .2-.95"/>
    <path fill="#FFF" d="M454.02 238.32l-8.22 3.38-12.75 7.68-9.15 11.12-.65.55.1-.85.15-.52-5.13 8.05.8.8 6.53 5.17 2.95 3.15.05.55.65-1.75 5.2-10.2 3.25-4.8-7.6 17.8-6.4 23-10.5 54.75-3.5 11.55-.68 1.6-1.72 5.45-2.8 6.25-5.7 9.95-3.67 4.77-.08.25 12-11.92 1.65-1.2-.8 1.9-2.05 3.35-2.95 3.53v.62l-.75 4.3-2.15 6.25-3.9 8-3.5 5-1.65 1.77-.7.93-2.05 2.05-1.78 1.27 8.38-2.37 1.78-.18 7.62-3.67 2.35-1.4 6.9-6.18.25-.77 8.3-11.55-.03.55.1-.07.43-3.28.6-2.2.25-.55.4 2.85-.2 11.1-1.7 10.5-1.6 4.65 1.57-2.32 2.38-4.48 3.85-10 5.35-22.43-.15-.52-1.6-10.55-.15-9.8.6-6.4 1.85-8.05-.05 20.4.85 8.9 2.55 11.45 2.18 6.8-.13-2.5.23-3.03-.23-2.02.23-2.1-.23-11.55.75-10.75 1-7.68.35-6.52 1.43-10.32-.03-3.18.75-4.9.85-2.52.05-1.03.3-1.3.6-.8.13-.1.07-.27-1.3-4.98-.7-5.95v-5.95l.75-5.9 1.25-4.25 1.3-2.7.45-.6-1.35 12.15.1 7.1.65 5.7 3 11.85-.35-6.5.45-9.55.35-2.35 1.13-4.18-.13-1.02.2-3.45.7-2.3.6-1.05.5-.5.2.65.5 8.6.32 1.55.48-4.85 2.35-10.95 3-8 2.3-4.1 1.35-1.7 1.45-1.4.45-.3-.27.82 3.02-4.02 5.85-5.85 4.95-3.65 6.3-3.25 3.8-1.35 4.9-1 .4-.02.2-.08 1.25-.05.17.05 1.43-.05 3.3.3.1.03.7-.13 1.4.3 1.38.77.32.13 1.7.9 1.5 1.05 1.3 1.3 1.05 1.4.75 1.6.45 1.75.05.45-1.5-2.65-1.65-1.8-.93-.65.18.35.25.7.05.75-.1.75-.25.45-.45-.2-1.05-.95-1.45-1.8-2.28-2.17-2.25-.38.73.8.45.8.1.7-.1.45H501l-.7-.15-.75-.35-3.65-2.25-2.55.38.45.32.4.5.25.6v.5l-.45.15-.65.05-4.83-.73-2.07.68-5.9 3.15-6.95 5.55-4.35 4.8-1.95 2.8 3-1.25 4.75-1.25 2.1.1.23.05-.18-.4.35.05 1.8.75 17.25 12.55 2.5 2.55.07.1h.03v.02l.15.18-.13-.03.03.18-.25 1-.3.45-.5.6-1.7 1.5-1.65 1.05-.5.2-.55.05-.35-.07v.02l-.1-.05-.4-.05.03-.1-1.73-.7-15.4-9.35-6.45-2.85-4.55-1.55-3.85 7.55-3.05 9.88-1.05 11.42-.55 2.65-.2.47.05.08-.1 1.35-1.3-.35-1.5-1.5-.53-.72-.54 10.7.44 8.7.15 2.35.18 2.47-.05-.1.05 1.1-.38-.95.03.75-.95-.7-1.5-1.65-1.1-1.9-2.7-5.95-.07-.2-2.88 29.8 1.93 2.7 4.47-8.15.35-.45.15.35v.05l.85-1.2.65-.6-.08.6.28-.7 1.35-2.25.85-1.05-.25 1.2-1.85 5.07 1.2-2.07.75-.9-.2 1.05-.85 2.27v.38l-.25 1.85-1.32 4.5 2.12-5.25.2.35.1.75-.2 1.65-1.57 3.95v.03l.67-.88.25.95-.48 1.77.78-.52.05.35.35-.15-.1.95-.2.48.05.05.05-.08.52.3.38-.3.3.6-.05.18.15-.08.02.05.48-.15-.03.43.18-.23.75-.35.05.52.15-.12.2.75-.32 1.02.87-.92h.65l.25-.2-.2 1.23.1-.08.65-.25.35.1-.1.4.03.05.32-.15.07.55.18-.25.6-.45.4-.2.15.4-.05.38.5-.78.8-.55.13.65.42.2.3-.1.02.25.13.05-.07.22.37-.27.15.4-.03.15.23-.25.8-.65.1-.02.25-.38 1-.8-.15 1.25-1.23 2.18.18-.28.55-.55 3.15-5.95 1.25-1.5-.3 1.75-.77 1.7 1.57-2.3.05.45-.1.8-.17.63 1.62-2.73.4-.45v.45l-.15.95-1.25 2.93 1-1.73.65-.7v.8l-.45 1.55-.43.85.43-.5-.05 1.35-.48 1.1 1.03-1.25.05.6-.2 1.3-1.47 2.78.12.17v.8l-.3.85-.68 1.15.03.03.85-1.43.6-.65.4-.35.2.35v.75l-.1.28.35-.18.15.35v.4l.45-.35.4-.15.1.4-.05.65-.07.15.17-.15.4-.2h.3l.2.1v.25l-.02.2.47-.3-.1.57.65-.67.75-.2-.13.63.38-.48.6-.5.45-.3.15.35-.05.45.2-.25.85-.45-.02.4.92-1.3.27-.15.98-1.45 1.05-.8-.13.7 4.03-6.3.4-.5.05.5-.2 1-.27.82 1.67-3.12v.6l-.15 1.15-.5 1.68.1-.13h.05l-.42 2.25.07-.1.05 1.05-.3.95 6.38-6.52.82-1.08.3-.3.2-.15.15-.2.2-.15.15-.15.2-.13.65-.67 7.25-8.65.07-.07 1.68-3.3v-.08l9.02-17.57 5.03-9.9 2.75-5.6-2.75-2.48-3.45-2.35-8-4.25-2.05-1.47-1.3 1.92-.38.2.08.9-3 18.5-.6 2.05-.1.15.05.1-.2.75-.6.9-.9 1.05-1 .9-2.2 1.5-2.5 1.15-1.05-.65.15-1.2 1.1-.6 2.85-2.05 2.38-2.23.02-.32.45-1.9 1.25-10.45 1.55-7.05.4-1.1.6-.95-.15-.15v-.55l.9-1.65 3.2-4.85.85-.85.65-.1.55.15.3.45.05.43 2.55.37 12.95 5.2 1.28.98.54-1.33-.17-.35 3.42-12.45-.52-9.05-1.05-4.6-2.5-2.35-.3-.4-.3-.55-.1-.45.35-.3.65-.1h.6l.25.1-.13-.3-.47-.15-1.8-1.05-2.6-.95-.5-.25-.6-.4-.3-.35.25-.4.65-.4.6-.2 1.25-.05 1.05.27-.25-.32-.18-.15-.12.05-.95.1-2.8-.5-.55-.05-.85-.2-.55-.3-.35-.3.1-.45.4-.5.3-.2h-1.8l-2.7.35 1.55-.7 2-.5 1.9-.1 1.75.2 1.7.55 2.2 1.4 1.9 2 1.1 1.65 1.75 3.75.3 1.1.55.95.15 1.15-.07.25.57 2.1 1.25 13.35-.9 17.6-1.45 9.7-.35 1.55-3.4 11.05-5.45 11.25-1.93 2.95-.47 1.45-.63 1.02.08.03 5.25-4.85 3.55-4.5 2.85-4.9 1.35-3.15 3.1-9.95.25-.55.15.55.25 2.4-.1 2.4-1.8 7.05-2.1 4.45-2.48 3.72.13 2.28-.9 5.8-2.65 8.05-3.3 5.73 1.25-1.23 4.7-5.47.4-.58.85-1.5 3.55-8.2h-.05l.45-1.25 3.55-15.2 2.6-23.85.1-12.1-.85-10.65-2.35-10.9-1.55-4-2.5-4.55-3.2-3.5-1.9-1.35-2.1-1.1-3-.95h.65l2.5.4 2.35.8 2.15 1.25 1.95 1.55 3.1 3.8-1.1-2.85-2.25-4.05-2.7-3.7-6.25-6.78-5.5-3.67-10.15-5.58-1.3-.42-1.3-.73-5.65-2.22-16.7-1.35-2.15-.4-10.25-.95-13.53 2.17"/>
    <path d="M482.75 241.45l-7.5 3.8-3.15 2.75-.75.9 10.05-4.4 6.4-1.85 3.15-.4 3.1.05 4 .85 5.05 2.3 1.1.65.6.25-.25-.6-.8-1.05-1.75-1.75-1-.7-2.1-1.1-1.1-.45-2.25-.6-3.5-.35-3.5.25-5.8 1.45m-17.9 46.25l.15.4.3.55.63.43-.18.37-.05 1.55.95 2.7 1.55 2.45 1 1.05 1.15.57.6.53 3.2 1.85.75.35 6.3 2.35 2.35.3h.65l-2.35-1.85-5-2.65.2-.05.95-.75.3-.5.15-.55.05-1.05-.02-.25 6.47 3.4.05.25.55.6.43.38-.28.42-.4 1-.1.9.35.7.35.35.5-.1.7-.25.4-.7.45-1.05.05-.32.6.17 1-.3v-.05l-.15-1-1-1.05-2-1.25-.3-.03-1.15-1.07-4.9-3.5-7.4-3.95-1.5-.5-1.5-.3-.52-.02-.18-.18-.7-.45-1.5-.6-.75-.15-.65.2-.6.4.05.25"/>
    <path fill="#FFF" d="M470.05 294.25l.52.52-.02-.32.35-1.05.3-.5.4-.4.35-.27-.5-.03-.7-.25-1.75-.85-1.07-.75 1.57 3.15.3.35.25.4m3 0l-.4.2-.9.85-.25.3.9.7 3.78 2 .07-.3.1-.8v-1l-.1-.25-.05-.2-.45-.6-.2-.2-.85-.6-.25-.05-.25-.1-.2-.05h-.6l-.35.1"/>
    <path d="M462.55 332.65l-.1.7.1 1.15.15.3.1.35.4.55.55.5.7.45.45.15.2.1 11.6 4.6 6.6 3.7 7 5.55 1.05.65.55.25.3.05.55-.1.25-.1.25-.2.15-.2.2-.6v-.55l-.1.15-.15.3-.15.2-.15.15-.15.1-.1.05h-.1l-.1-.05-.3-.1-.15-.1-1-1.25v.05l-1.55-2-3.4-3.05-5-3.35-5.2-2.65-6.7-2.4-3.4-.8-.35-.05h.05l-.15-.05-.6-.1-.65-.3-.15-.1-.15-.15-.2-.15-.35-.5-.5-1.15-.2-.35-.1.35m13.95-7.45l-.3.2 1.65.95.75.3 8.7 2.6 1.45.2h1l.55-.15-.3-.45-.65-.75-1.25-.85-1.85-.8-4.45-1.4-2.85-.4-.85.05-.85.2-.75.3m3.4 29.7l1.75.45 1.05.05-.45-.95-1.25-1.35-5.3-3.2-3.3-1.3-1.95-.05 1.15 1.55 8.3 4.8m28.8-42.77l-1.8-1.53-1.8-1-1-.3-.55-.05.15.55.35.63-1.1.77v1.3l1.25.45 1.23-.82.5.44-.23.08-.4.25-.3.3-.25.35-.2.45-.05.45.02.38-1.17-.68.05.55.25 1.15.5 1 1.4 1.75 1.65 1.55 1.9 1.15 2.02.68.33.22.5.2.6.15.55.05 1.85-.2 1-.35.9-.5.8-.8.2-.5.4.05-.35-.95-1.05-1.5-2.05-1.8-5.05-3.5-1.05-.43"/>
    <path fill="#FFF" d="M507.1 314.65h-.4l-1.68.55 2.78 2.35.15.1.1-.8.2-.7v-.5l-.05-.15v-.1l-.05-.1-.1-.05-.05-.1-.25-.25-.15-.1-.2-.1-.3-.05m3.35 1.83l-.4.77-.35.35-.4.25-.5.2h-.2l1.5.95.75.35 1.4.4.8.1 1.65-.03-.2-.12-1.3-1-.28-.32-1.12-.73-1.35-1.17m-95.1-44.43l-.43-.4.03 1.65-1.05 9.63-.1 8.97-.43 1.4.5 5.88 1.28 4.07 1.1 2.02 4.02 3.56 1.83-8-1-.43-.7-1.3-.3-1.45.1-1.45.3-.32-.1-.08v-.2l.15-.7.15-.3.75-.7 1.2-.7.65-.2.57.1.98-4.3-.25-.2-6.35-8.8-.5-.85-.35-1.05-.05-.65.65.1 1.75 1.15 2.8 3.15 2 3.1.85 1.68v-.03l2.05-5.55-1.75-.6-1.1-1h-.05l-4.75-3.35-2.05-2-.02-.05-2.38-1.8"/>
    <path fill="#FFF" d="M422.15 296.25l-.1.02.4.98.25 1.02.6-2.62-1.15.6m55.6-18.65l-.23-.38-.22.23-1.7 1.2-10.2 3.58 1.4-.03 2.15.25 2.2.55 5.85 2.35 2.1 1.1 7.75 4.95 4.45 3.75 1.35 1.45.4.57.3-.82.25-.4 2.15-2.05 1.6-1.1.45-.2.45-.1h-.05l-2.65-1-4.5-2.8-11.45-9-1.85-2.1m-82.6 33.4l-4.85 4.4-10.85 7.5-7.9 3.75-2.05.75-6.45 1.6-3.3.45 2.9-1.3-.2.05-.68.05-.87.3-1.2.2-2.45-.2-2.48-.82-.32-.08-.52-.2-.63.05-.95-.1-.9-.35-.22-.13.37.38 1.9 1.35 2.9 1.4 3.2.95 7.3 1.45-.85.35-1.8.45-1.85.2-1.38-.02-.44.27.62.2.4.2-.35.25-.8.35-2.3.3-.32-.05-1.1.18-.63.22-2.2.35-4.35.2-4.35-.4-4.8-1.15-2.57-1.03.77.58-.4.05h-.8l-1.6-.2-1.15-.35-2-1.02-.85-.13-1.2-.45-.28-.15.93 1.15.6.95.2.6-.65-.05-.15-.05.1.23.8.02 1.45.3-1.3.75-2 .7-4.05.55-4.1-.1-2.7-.55 4.82 3.25h.03l.85.55v.32l.65.98.25.5-.2-.05 12.25 5.55 2.1 1.2.5.45-.77.15-.06.1.3.1.78-.05v.05l.1-.1 2.3-1.75 3.7-2.2 2.6-1 1.3-.35.7-.1-9.1 7.15-.15.15 1.3.45-.45.15-1.75.35h-.02l-2.73 2.85-3.05 4.4-1.7 3.55-.85 2.4-.65 3.8-.1 2.55.43 3.68.37-.83 2-3.1 4.2-4.75 5.6-4.8 3.75-2.3 1.85-.7.45-.1-.93.9.43.7v.35l-.1.6-.35.85-.3.45-.05.2-2.2 5.25-1.9 7.6-.22 2.6.2 2.65.02-.05 1.15-1.8 1.05-1 .3-.18.4-.47 1.75-1.6 2.95-1.95 1.05-.5.38-.07 2.47-1.58 5.55-2.7 3.7-1.15.9-.2-1.6 1.43.2-.08.45-.05v.05l.05.45-.45 1.7-1.2 2.1-.2.55-.1.2-.25.95-1.95 4.35-3.15 4.6-.75.82-.45.63-.65.65-.15.2-1.4 1.4-.2.15-1.3 1.3-1.07.7-1.28 1.05-2.1 1.35-3.3 1.65-4.7 1.35-.32.02 5.37 1.53 5 .5h.9l7.3-1.18.25-.07 1.52-.23.33-.27.75-.4-.2.85-.15.27.35-.17-.1.8-.55 1.3-.7 1.2-.9 1.1-2 1.95-3.4 2.45-1.27.6-.18.15-2.6 1.5 6.65-1.1 2.07-.05 5.93-3.4 7.27-5.85.23-.25 2.25-3.3.75-.85.5-.45.2.65v.3l.3-.2.15.6.05 13.7.4 1.95.4 1.15.85 1.5.53.63-.33-2.58.2-2.75.35-.75.05-2.25 1.15-6.05 1.65-5.35.05-.13.35-1.62 1.35-3.5 1.05-1.5.3-.9.27-.58.18-.52 6.3-12.7 14.4-24.45 9.05-16.2 2.77-14.92-1.17-.43-.95-.65-.18-.17-.12-.03-1.7-1.1-1.6-1.6-1.5-2.05-1.1-2.3-1.85-8.2-.5-5.35-3.2 5.8-3.9 5.3-5.9 6.55"/>
    <path fill="#FFF" d="M359.15 333.2l-.2-.05.53.18h.47l-.8-.13m4.37 37.45l.33-.38-.55.36.22.02m-6.92 7.75l.5.55 1-.85.32-.2 1.06-1.72-3.4 1.8.52.42m-7.37 4.35l-.53.85-.5 1.55v1.3l.65-.4 6.47-5.57-1.52-1.3-2.35 1.37-.32.27-1.73 1.78-.17.15m-2.7 4.65l.02.05.07-.05-.05-.13-.05.13m54.78-5.83l.63-1.37.07-.35 2.1-5.58 6.77-25.25-1.87 2.58-1.25 2.8-8.07 12.1-11.03 21-.55.82-3.65 10.25v1.28l-.5 5.55.9.7.45.5 5 2 1.05 1.15 2.25-3.35 3.5-7.22-4.55 2.87-2.95 1.3h-.2l-1 .3-1.15.1-.6-.05.45-.55-1.15.2.85-.68.3-.77.85-1.25.68-.63.72-1.32 6.9-8.43 5.05-8.7m-1.15 13.8l-.17.15-.68 1.13-.1.68.95-1.95m76.8-15.48l.1.03.32-.6-.42.57m3.3 3.55l-.18.1.38.65 1 2.4 1.05.45 1.18.77.22-.12 1.15 1.05.4.55.35.65.25.7.1.48.1.17 1.13 4.05.64-.05.18-.15 1.9-.17 5.35-1.08.95-.27.25-.38.33-.82-.23-1.13v-.3l-.23-1.55-.27-.3-.4-.8.1-.23-.7-.52.1-1-.35-.5.25-1.8.27-.57-.4-.2-.02.02-2.25-.07-.13.57.53.15.25.65-.25 1.3-.35.85-.65 1h-.23l-.67 2.3-1.25.5-.85-1.05.3-1.55.75-2.2.55-.43.27-.84-2.87-3.03-.5-.65.1-1 .8-.55.9.3L491 381l.43.48.47-.33 1.35-.15.95.1.4.1.4-.25.55.05.5.2.32.25.53-1.05.6-.8.55-.4.8.15v.05l.45.65-.05.65-1.7 6.3 1.05.65.85.8.85.4 1.7 1.5 2.3 3.1-.2 1.5-.88-.1.68 1.6 4.15 17.05-.35 1.1-1.05-.45-1.55-3.05-.5-1.55-2.95-12.5-1.75-5-.15.05-.43-.3.28 2.85-.9 1.05-.22-.13.02.33-.1.95-.3.95-.2.45-.25.4-.7.7-.9.45-.93.22-.07.28-2.2.4-.3.95-3.85 2.15-2.25.72-.15.33-.8 1.1-.75.8-2.6 1.8-.2-.1-1.85 1.15-1.45.65-2.9.9-2.1.2-2.2-.2-1.05-.7-.45-.55.6-.35 1.15-.35 2.8-.2 1.7-.4 2.25-.95 1.75-1.3v-.05l1.3-1.23 1.3-1.92.72-1.67-.62-6.58-.38-1.27.23 5.52-.1.85-.2.5-.55-.2-.65-.6-.4-.65-.6-1.4-.15-.7-.2-2.5.2-1.5-.43.18-2.37 1.82-1.55.8-.43.15-.57 3.05-.1 1.35.15 1 .2.45.25.35.25.25.2.05.2.1.2.05h.6l.75-.2 3.5-1.55.5-.1-.1.5-.3.85-.95 1.25-1.1.85-1.15.55-1.15.25-.55.05-.55-.05-.55-.15-1-.45-.8-.75-.3-.45-.25-.5-.35-1.05-.1-1.2.15-1.2.35-1.3.6-1.2-1.4 1.4-2.55 1.45-1.35.5-.7.18v5.07l.82 5.45h.03l7.55 5.25 5.05 4.15 1 1.1 1.75 2.4.32.58.43.47.45.65.4.82.8.08 2.95.9 2.8 1.3 11.2 6.6.15-.1 5.75-.05 5.05-.7 3.9-1.3.65.4.2-.05.17.05.13-.45.95.15 1.05.95 2.05 3.4 2.55 6.15 1.85 7-.13.25 2.08 9.9 1.8 13.5 1.35 17.1.65 3.7.82 15.45.68-.85.6 1.75-3.3 20.4.05 4.75 2.17 19.3 2.18 6.2 6.83 15.47.32.43 6.27 10.55.63.75 22.05-3.25 6.18-.4 1.02-.15 7.15-.35.65.02 5.8-.22 6 .6 7.82.15 5.56-12.97.42-3.18.05-12.2-1.3-13.2-.1-.5-6.45-15.95-3.3-6.6.08-1.48-6.98-14.52-7.75-13.95-.25-1.27-6.85-11.88v-.43l-.3-.62-.38-1.1-.37-.3-1.15-2.75-12.9-38.2-.02-.38-.08-.02-.98-3h-.02l-.03-.15-.62-1.85-.2-.1-.35-1.6-.75-5.6.02-.65-.27-.8-.02-.32-.23.02-4.9-4.6-1.08-1.22-.14-.08-.83.25-1.55-2-.1-.2-.2-.25-.45-.8-.1-.4v-.45l.27-.27-.6-1.03-2.32-2.15-10.48-16.4-.57-.75-.4-.27-.65-.23-4.05-4.85-3.95-3.7v.35l-1.75-.55-3.35-4.15-.38-.6-.47-.55-.2-.35-.2-.2-1.1-1.75v-.15l-.25-.2-.5-.8-.18-.45-1.77 1.55-3.4 1.9-.9.35 1.22-1.43-.25.1-.72.53-.88.43-.17.12.02-.05-1.07.75.65-.65-1.45.45-1.15-.2-.65-.35.35-.6.7-.8.82-.43.43-.82 4.2-5.88-.6-.87.13-.28-.03-.02-.55-.8-.3-.65-.1-.15-.1-.6.3-.25-.95-1.65-.17-.7-.2-.4-.43-.35-.2.7-6.75 2.98-.65.67-9.8 4.6-4.2 1.3-4.07 3.9-1.28 1.85-2.5 2.65-.23.3.03.45-.65 1.4-.6.9-1.6 1.45-.7.4-.13.05-.02.05-.4.35"/>
    <path d="M530 436.85l3.25.2 3.3-.25 3.2-.75 3.1-1.2 1.45-.8 1.35-1 1.2-1.2.5-.65-8.15 2.55-5.9.85-2.95-.1-6.35-.88-.1-.37-8.35-7.6-4.1-4.95-1-.95-.95-.3v.05l-.35.9.4 1.4.75 1.2 2.5 3.3 1.9 2 7.9 6.55 1.7.05-.13-.55 1.53 1.15 1.15.5 3.15.85m25.75 81.4v.05l4.85 12.05 2.6 9.15 1.25 9.25-.5 20.5 1.8-5.85 1.15-9.9-.25-8.15-.7-4.8-1.55-6.35-3.9-9.35-4.05-5.9-.7-.7"/>
    <path fill="#FFF" d="M467.75 382.65l.07.8.83 3.65.15 1.7 1.27 5.07.18.18-.07.3v.1l.6-.2 1.12-.68-.5-.77-.9-2.05-2.4-8.25-.35.15m8.07-2.95l-.05.03h.06v-.03m-2.68 4.15l-.65-.1-.52-.15 1.92 8.2-.05.6 1.25-.72.05-.18.25-.25-.4-.85-.15-.65.05-.65.08-.05-.83-1.85-1-3.35m5.9 4.5h.05l-.25-.25-1.6-3.8v-.05h-1.57l1.92 5.38.25-.33 1.2-.95"/>
    <path d="M520.38 248.38l.57.47-.18-.22-.14-.2-.1-.03-.15-.03"/>
    <path fill="#FFF" d="M520.77 248.63l-.25-.23-.14-.03.57.48-.18-.22m6.28 65.37l.33-1-.03-1.15.48-6.38-1.33 5.78-1.67 4.1.02.6-.8 3.05-7.4 15.75-10.07 18.55 1.57-.15.7-.9 1.35-.3 2.85.1.93.18 4.97-10.33 6.8-20.22 1.3-7.68m-3.6-5.43l-2-.42-8.6-3.25-3.25-1.8-.9-.75-.7-.75.05.3-.05.45-.1.4-.9 1.35-1.25 1.35-.5.4-.32.13 2.27.37 4.3 1.7 4.2 2.25 3.6 2.75 1.2 1.3.75 1.15.05.13.58-1.4.82-4.33.25-.65.5-.68m-4.75 46.33l-.4.38.85.92 1.05 1.85.13.3 2.87-6.98-4.5 3.45v.08m5.7 12.73l.3.27 2.42 2.95 3.05-11.6-2.97 5.2-2.8 3.18M506.1 360l-.53-.1-.12.05-3.05.35-1.3-.18-1.83 2.28 2.73-1.25 1.8.15-.23.38 4.23-1.98-1.7.3"/>
    <path d="M210.95 337.2q-4.1 3.7-5.85 5.05 1.75-1.35 5.85-5.05 3.6-3.35 5.95-4.95 1.05-.75 2.85-1.65 2.75-1.4 2.9-1.5 3.38-1.9 4.67-2.6l.38-.2.2-.1q.03-.02.07-.02l.06-.03q.7-.36 3.77-1.55-3.06 1.2-3.78 1.55l-.05.03q-.04 0-.07.02l-.2.1-.38.2q-1.3.7-4.67 2.6-.15.1-2.9 1.5-1.8.9-2.85 1.65-2.35 1.6-5.95 4.95"/>
    <path fill="#FFF" d="M244.5 422.63l-.05-.08-2.4-3-.8-.75 3.25 3.82m7.65 39.63l.67 2.05 1.03 1.25-1.7-3.3m-18.1-45.4l.55.65-1.38-2.2.83 1.55m2.35 3.5l-.8-1.28 1.08 2.43.07-.45-.35-.7m40.08 82.33l-.63-.58-.15-.08.23.23.55.43m-27.1 76.47l-.88-.88-.25-.2 1.13 1.08m-91.6-131.63v.16l.8.14-.53-.17-.05-.05-.22-.08m-78.13 77.83l-.5.15-.95.75-.35.17.25.23.25.8-.3 5.07.2 1.18.35 6.1.5 2.15.05 2.65.25-.25 1.65-1.25 3.15-1.5 2-.4 1.3-.05.6.05.65.15 1.1.55.95.85.55 1.15.1.65v.7l-.4 1.45-.3.55-.3.35-.25.2-.1-.25-.35-1.75-.3-.95-.35-.6-.2-.2-.2-.1-.2-.15-.25-.05-.3-.1h-.3l-.4-.05-.4.05h-.45l-1.5.35-2.25.85-3.5 1.9-.3 2.42v.18l-.02.02-.13 1.13-.28 1.02.53-.52 2.3-1.5 1.6-.7 3-.75h1.85l1 .3-.7.7-1.55.95-5.35 2.4-2.4 1.6.2.3 1.4 1.4 1.15.7 1.02.38.58-.98 6.65-1.85.3-.15 2.45-1.9 1.02-1.02-.32-.78 1.1-5.7.35-6.3-.65-6.35.5-.9.33.15-.06-.73-.67-4.12.4-1.15.95.7.22.4.43-1.25.58-.43.72-1.92.45-.48.2-.87.55-1.6 1.25-.45.75 1.05-.38 1.45 1.73-1.3-2.4-9 .03-.07-.03-.03.58-3.93-1.33.38-4.63.13-.02.52-2.95 4.35-2.5 2.63v.42l-.73.63-.17.37-2.65 4.15-1.8 2-.65.6-1.4 1.05-1.6.85M70.8 536.2l-1.95 1.3-2.5 1.15-2 .58-.05 1.27-.5 2.35-.8 2.13-.15 1.97-.2.97.05.03.45.95v2l-.3 1.85-.25.95-.7 1.7-2.6 3.9-.13.13.33.27.65 1 1.3 3.3.25-.6 1.55-1.8 1.85-1.4.7-.4 1.55-.55 1.1-.1 1.05.15 1 .5.75.8.3.5.35 1.15.05.65-.1.7-.25.7-.25.4-.35-.35-1.35-2.25-.2-.2-.5-.25-.2-.05h-.4l-.55.1-1 .4-1.35.75-3.05 2.5-.42.27.52 3.03.1 2.45.2.2.3.45.65-1.15 1.45-1.8 2.1-1.7 1.3-.85 1.5-.45h.95l-.35.85-.9 1.25-4.22 4.23 2.37-.13.6-.15 1.3-.5 1.2-.8 1.2-1.05 2.63-3.35.32-1.4.33-5.1-1.63-.8-.55-.45-1-1.05-.5-.85-.35-1-.1-.5.35-.65.13-.1.57-9.9-.15-1.9.25-5.13-.3-1.72.03-.8-.23.3-1.25 1.1m-9.8.35v.25l.13-.1.02-.03-.15-.12m-1.4 37.85l-.35.7-.6.5-.6-.45-.45-.8-.45-2.8-.35.75-.7.1 1.25 3.6.8 3.92.45-.77 1.15-1.2.8-.5.9-.3.45-.05.5.05.5.15.4.2.4.3.35.35.3.4.4.95.15.6.05.6-.05.65-.25.75-.25.4-.35-.3-1.65-2.4-.2-.15-.1-.1h-.2l-.05.05h-.05l-.1.05-.3.2-.95.9-1.68 2.52.23 3.68-.05 1 .5-1 1.65-2.2 1.1-1.05 1.4-.8.85-.25-.1.9-.6 1.45-2.7 4.25-1.2 2.83.6.97 1.25-.05 1.63-.33.97-.64.15-.13.27-.15 1.43-1 .1-.1 2.45-3.23.8-1.77.6-2.65-.55-5.2.03-.75-1.43.4-.95.1-1.95-.1-.95-.25-.95-.4-.1.1-1.3-.55-.55-.35-.55-.45-.05-.05-.75-.55-.45-.55m-1.77 14.25l.02.05.6 1.02.3-1.32.08-.17-.83.52-.17-.1m93.57-69.88l-.7-.14.7.22v-.08m-47.43-20.9l.08-.22.15-.25-.48.28.25.2m-11.07 7.3l-.23-.18-.02.15.25.03"/>
    <path fill="#FFF" d="M96.08 526.92l.05-.25-.18.03.13.22m-11.73 119.5l.7 2.93-.3-1.85-.4-1.08M238 700.8l-.55-.72.98 2.57-.43-1.85m3.5 4.2l.03.1-.03-.15v.05m6.93 39.75l-.18 2 .07-.15.18-2.23-.07.38m-2.36 30.77l.08.03-.08-.05v.02m-1.8 11.65l.33 1.75-.1-1.27-.25-1.02.03.54m251.07-389.72l.3-.3.15-.25-.75.35-3.15.5-2.7-.1-.68-.1-.57.1-.38-.02-.02.22-.05.15-.07 1 1.52-.25 4.5-.3.8-.13v-.07l.35-.35.3-.2.25-.1.2-.15m-9.2 33.98l.1 1.64 3.32 8.73.23-1.35v-1l.85-4.05.68-1.3-5.18-2.68m20.05 8.3l-1.72-.24.47.47-3.5-.6-7.55-3.9 2.3 7.25 2.85 5.4.55.75 7 7-.3-1.35-.65-7.2.4-7.1.15-.47m3.93.1l.77 1.52 2.85 4.05-.1-.25-.3-1.45-.05-.75.2-2.2.2-.75.07-.13-3.64-.05m-89.3-38.25v.03l.37-.4.05-.32-.43.7m-34.97 5.8v.05l.1.05-.1-.1m-3.53 15.8l.38-.16.15-.25-.53.4m-26.17-23.52l.88-.1.15-.13-1.1.23h.07m109.4 227.6l-6.1 4.05-.52.43 10.84-6.73-4.22 2.25m156.3 42.3l-2.5 2.73 8.2-6.05-4.35 2.25-1.35 1.07m-82.58 70.85l.88-.25-2.35 2.2-15.85 10.1 5.1-2.8 11-7.45 14.2-11.15-12.98 9.35m-30.95 136.87l.43-.12.38-.02-.56-.25-.25.4m-19.92 58.95l-.57.35 4.32-.7-3.75.35m6.55-.63l1.15.65 5.9-1.4-.5.1-6.55.65m122.7-12.4l.2-.18-.05-.67-.05-.2-3.35-.45-.23-.08-.42.08-1.38-.03-.07.03-.65.1-1.3-.05-1.3-.3-1.5-.65-.72-.55-1.78-.4-.15-.33-2.6-.77-1.75-.85.2.55.9 1.5 1.05 1 1.35.75 2.35.65 8.4.5 2.8.6.05-.25m-22.25-11.4l-.25-.22-.45-.18-2.25-.4-9.03-.38 2.28.68 2.25.3 7.45.2m-140.9-69.6l-7 10.85-.93 1.8 7.66-12.13.27-.52m13.15 97.45l1.5.15 7.95-.27-.05-.03-.07-.1-9.33.25m12.8-2.2l1.65.07 4-.67-5.65.6m-.85.1h-.3l.1.03.2-.03m-215.1-40.22l.15 1.12v-1.35l-.15.23M131.3 933.4l.07.2.78-.15 3.05-.05 6.8 1.05 4.45 1.35 1.4.6 2.75 1.5 1.2.95 1.02 1.13.23-.28 3.35-2.65.45-.45.15-.2.3-.55v-.2l-.1-.1-.05-.1-.15-.15-.95-.7-.5-.25-3.6-1.3-7.82-1.7-2.28.85-3.05.6-1.15.05-1.3.3-.85-.2-1.4.05-2.17-.25-.23.2-.4.45m-9.8.6l.2-.08.42-1.14-.32.02-.45-.2-.95.65-.45.2h.7l.45.15.4.4m1.45-4.65l1.33-.15.07-.1.25-.2-3.85.23-.85.47-1.4.45-1.47.18-.66.22-1.32.6-2.13.58.18.47 2.25-.3 2.6-.7 3.35-1.55.3.15.9-.13.45-.22m-23.2.85l-.03-.03v.03h.03m.8 7.35l-.2 1.55-.15.07v.06l.27.62.28.25 1.22.75.28-2 .65-2.05 1.15-1.9.08-.07-.03-.03.23-.25-.4-.67-1.9.04-.08.33-1.05 2-.35 1.3m8.1-.3l-.33-.05-.12.5-.3.6-.6 2.03-.2 1.32.05.2.3.85.75 1.4 1.05 1.25.3.25 1.25.8.75.35-.3-1.23-.75-.27-.35-2.45.05-.95.2-1.2.7-1.8.7-1.1.17-.2.03-.1.1-.25-.65.1-2.8-.05m7.95.77l-.05.43-.02.05-.03.4-.55 1.5-.48 2.68.28 1.47.55 1.58 1 .82 2.75 1.3 2.05.5-.35-.7-.65-2.15-.35-2.3.05-2.35.17-.92-.52-.53v-1.1l.2-.83h-.23l-3.17.68-.65-.52m16.33-23.48l-1.46.55.28.1 1.18-.65"/>
    <path fill="none" stroke="#000" d="M210.95 337.2q-4.1 3.7-5.85 5.05m5.85-5.05q3.6-3.35 5.95-4.95 1.05-.75 2.85-1.65 2.75-1.4 2.9-1.5 3.38-1.9 4.67-2.6l.38-.2.2-.1q.03-.02.07-.02l.06-.03q.7-.36 3.77-1.55" stroke-linecap="round" stroke-linejoin="round"/>
    <g transform="translate(404.9 699.95)">
      <animateTransform attributeName="transform" additive="replace" type="translate" repeatCount="indefinite" dur="2.9583s" keyTimes="0;0.4085;0.4225;0.4366;0.4507;0.4648;0.4789;0.493;0.507;0.5211;0.5352;0.5493;0.5634;0.5775;0.5916;0.6056;0.6197;0.6338;0.6479;1" values="366.151,760.5;366.151,760.5;365.6463,759.8124;365.2966,759.4034;365.0396,759.0816;365.0017,758.9586;365.6926,759.9489;366.1678,760.6807;366.5327,761.1084;366.6362,761.1531;366.3641,760.6315;365.9883,760.2716;365.9264,760.1801;366.0296,760.3737;366.1617,760.4832;366.2196,760.4181;366.1549,760.5031;366.1651,760.5064;366.151,760.5;366.151,760.5" calcMode="discrete"/>
      <animateTransform attributeName="transform" additive="sum" type="rotate" repeatCount="indefinite" dur="2.9583s" keyTimes="0;0.4085;0.4225;0.4366;0.4507;0.4648;0.4789;0.493;0.507;0.5211;0.5352;0.5493;0.5634;0.5775;0.5916;0.6056;0.6197;0.6338;0.6479;1" values="0,0,0;0,0,0;-2.2771,0,0;-4.0116,0,0;-5.0142,0,0;-5.3905,0,0;-1.0499,0,0;1.7602,0,0;3.5223,0,0;4.1899,0,0;0.7579,0,0;-1.2535,0,0;-1.9497,0,0;0.2833,0,0;1.1539,0,0;-0.2597,0,0;-0.7746,0,0;-0.0481,0,0;0,0,0;0,0,0" calcMode="discrete"/>
      <animateTransform attributeName="transform" additive="sum" type="skewX" repeatCount="indefinite" dur="2.9583s" keyTimes="0;0.4225;0.4366;0.4507;1" values="0;0;-0.0009;0;0" calcMode="discrete"/>
      <animateTransform attributeName="transform" additive="sum" type="scale" repeatCount="indefinite" dur="2.9583s" keyTimes="0;0.4085;0.4225;0.4366;0.4507;0.4648;0.4789;0.493;0.507;0.5211;0.5352;0.5634;0.5775;1" values="1,1;1,1;0.9998,1.0072;0.9996,1.0123;0.9995,1.0154;0.9997,1.0167;0.9999,1.0095;0.9998,1.004;0.9996,1.0007;0.9998,0.9998;0.9999,0.9999;0.9999,0.9999;1,1;1,1" calcMode="discrete"/>
      <animateTransform attributeName="transform" additive="sum" type="translate" repeatCount="indefinite" dur="2.9583s" keyTimes="0;0.4085;0.4225;0.4366;0.4507;0.4648;0.4789;0.507;0.5211;0.5352;0.5493;0.5634;0.5775;0.5916;0.6056;0.6197;0.6338;0.6479;1" values="38.749,-60.55;38.749,-60.55;38.699,-60.6;38.799,-60.6;38.799,-60.6;38.649,-60.55;38.749,-60.55;38.749,-60.55;38.699,-60.5;38.599,-60.55;38.699,-60.5;38.699,-60.6;38.749,-60.55;38.799,-60.5;38.749,-60.5;38.749,-60.5;38.749,-60.6;38.749,-60.55;38.749,-60.55" calcMode="discrete"/>
      <path d="M55.65-62l-.2-.3-1.25-2.85-.5-.85-2.35-2.9-1.4-1.15-.75-.5-1.65-.8-1.5-.4-.25-.25-.85-.25-.9-.1-1.85.15-1 .3-.35.2-.05-.05-.95-1.4-.55-.55-.65-.5-1.45-.75-.8-.25-.35-.05-.25-.15-1.15-.5-2.55-.5-2.65.1-2.55.45-3.65 1.4-.55.35h-.1l-2 .6-1.8.95-5 3.65-1.5 1.45-.05.15-1.05.45-5.3 5.05-2.8.95-.65.35-.4.3-.25.5-.2.6v.1l-.3.1-.5.4-.4.5-.55 1.1-.65 3.4v1.35l.15.6.05.1-1.8 2.2-7.85 7.05-6.45 7.1-3.55 5.1-3.25 6.15-7.9 12.1-2.5 5.3-5.55 8.55-3 5.75h-.05l-.48 1.2-.02.1-.08.07-.12.13-1.25 2.2-.32.75-.95 2.07-4.03 8.93v-.05l-1.75 3.85-.1.55-4.1 4.9-.3.5h.35l.75-.3.75-.45 1.9-1.7-3.1 7.4-.25.8.6-.6 1.15-1.6-2.5 4.9-.6 1.15-.25.65 2.3-2.6.35-.6-.05 2.15 1.75-3.65-.05.4-1.1 2.8.75-1.1 5.35-9.85-2.1 5.3 16.95-34.3L-20-19.95l.15-.35L-4-39.05l1.05-1.65 4.55-4.35 1.3-1.75.3.45 1 1.15 3 2.75 1.6 1.05 3.5 1.5 1.85.45 1.9.15.8-.15 1.6.5 3.25.5 4.8-.05 4.25-.9L35-41.35l1.25-.9 1.75-1.6 2.5-3.45 1.8-3.75.4-1.9v-.9l-.1-.35v-.05l-.05.05-.3.5-2.1 4.25-3.55 5.2-1 .8-1.75 1-3.3 1.15-1.8.4-4.55.25-1.55-.05-4.65-.8-1.55-.45-5.3-2.4-2.5-1.7L6-48.5l-.4-.55.15-.05-.05-.4-.65-3L5-53.55l.5-3.1 1.4-.55 1.25-.7-.2.6.9-.4 2.35-2.6 6.2-5.55 3.2-1.95 3.4-1.5 4.6-1.1 1-.1 4.55-.05 2.15.35 3.7 1.5.2-.05.8 1.25.3.3.15-.7.05-.9.15.1 5.7 2.4 2.1 1.9 1.8 2.45.55 1.1 1.15 3.65.8 4.3-.05.2.05 6.3.1.25-.8 3.5-.6 1.35-.95 1.4-.95 1.1-.2.15h-.25l-.15.05-.3.05-.55.2v-.4l-.15-1.1-.25 1.1-.1-.75-.2-.5v-.15l-.25-1.55v-.15l-.15-1q-.05-.2-.05-.35-.15-.7-.25-1.4l-.6-3.45-1.05-2.35-.15-.15-.1-.4-1.2-2.4-.75-1.05.1 1.7 1.95 10-.15.55-.4 5.85-2.65 11.55-4.45 13.15-.4.5-15.6 29.75-7.65 11.9 1.2-2.45-4.1 5.75-.35.4 8.95-12.9-1.2 1.25L4.25 42.65-8.4 57.15l-8.3 7.4.75-.35 2.8-1.8-5.85 6.4-2 2.65-1.07 1.08-.13.12.4-.15-.15.25-1.25 1.05.75-.4-.45.55-.9 1.75 1.3-1 1.85-1.9v.05l-.25.25.2-.05-.05.15.2-.25.7-.25-2.85 2.75.3-.15-.25.2-.7.9.8-.2.25-.1-.1.1.75-.2 1.2-.7-.3.25 4.9-3.1 3.8-3.25L-5 62l1-1.2 4.45-4.05L6.8 49.5l1.75-2.55 3.9-3.85 9.05-12.25L38.35 1.6l2.7-7.45 3.9-7.3v-.05l.8-2.15L50.1-32.2l2.15-1.1 2.2-1.95 1.65-2.5 1.15-2.8.8-3.5.1-2.7.05-.4.15-3.15-.35-4.65-1.1-4.45-1.25-2.6m-6.7 25.85v-.2h.15l-.15.2m0 .15v-.1h.15l-.15.1"/>
      <path fill="#FFF" d="M2.5-58v.15l.1-.15h-.1M.1-48.8l-.05-.05-.1.15.15-.1m37.6 38.6l.15-.25.1-.35-.25.6m-39-33.75l-.25.3.3-.25-.05-.05m-9.9 6.45l.1-.05 1.35-1.5-1.45 1.55M-29.95-5.25l-.35.95 4.75-8.15-4.05 6.5-.35.7m-17.7 29.95l.75-1.35.35-.95-.1.15-1 2.15"/>
      <path fill="#FFF" d="M41.65-68.7l-.15-.1-.05.9-.15.7-.3-.3-.8-1.25-.2.05-3.7-1.5-2.15-.35-4.55.05-1 .1-4.6 1.1-3.4 1.5-3.2 1.95-6.2 5.55-2.35 2.6-.9.4.2-.6-1.25.7-1.4.55-.5 3.1.05 1.05.65 3 .05.4-.15.05.4.55 2.65 2.45 2.5 1.7 5.3 2.4 1.55.45 4.65.8 1.55.05 4.55-.25 1.8-.4 3.3-1.15 1.75-1 1-.8 3.55-5.2 2.1-4.25.3-.5.05-.05v.05l.1.35v.9l-.4 1.9-1.8 3.75-2.5 3.45-1.75 1.6-1.25.9-4.25 1.95-4.25.9-4.8.05-3.25-.5-1.6-.5-.8.15-1.9-.15-1.85-.45-3.5-1.5-1.6-1.05-3-2.75-1-1.15-.3-.45-1.3 1.75-4.55 4.35L-4-39.05-19.85-20.3l-.15.35-13.05 21.8L-50 36.15l2.1-5.3-5.35 9.85-.75 1.1 1.1-2.8.05-.4-1.75 3.65.05-2.15-.35.6-2.3 2.6.25-.65.6-1.15-.1.15q-1.4 2.3-1.85 3.95l1.75-.95q4.25 4.25 10.3 7.85 1.15.7 2.75 2.35 1.85 2 2.55 2.55.6.45 2.05 1.35 1.35.8 2 1.35.6.5 1.65 1.65 1.05 1.1 1.6 1.6.65.6 2.95 2.15 1.8 1.25 2.75 2.45.65.8 2.15 3.15 1.45 1.9 3 1.6.37-.07.73-.17l1.07-1.08 2-2.65 5.85-6.4-2.8 1.8-.75.35 8.3-7.4 12.65-14.5L19.1 22.6l1.2-1.25-8.95 12.9.35-.4 4.1-5.75-1.2 2.45 7.65-11.9 15.6-29.75.4-.5 4.45-13.15 2.65-11.55.4-5.85.15-.55-1.95-10-.1-1.7.75 1.05 1.2 2.4.1.4.15.15 1.05 2.35.6 3.45q.1.7.25 1.4 0 .15.05.35l.15 1v.15l.25 1.55v.15l.2.5.1.75.25-1.1.15 1.1v.4l.55-.2.3-.05.15-.05h.25l.2-.15.95-1.1.95-1.4.6-1.35.8-3.5-.1-.25-.05-6.3.05-.2-.8-4.3-1.15-3.65-.55-1.1-1.8-2.45-2.1-1.9-5.7-2.4"/>
      <path d="M41.35-66.3l-.1.35-.15.9.1.85.65 2.15.15.35.1.35.2.2.2.15.25.05.1.05.15-.2.25-.45.25-1V-63l-.2-1.25-.7-1.8-.25-.3-.25-.15-.25-.05h-.3l-.1.05-.1.2m-6 27.8l-3.25 1.35-1.75.4-3.6.45h-7.1l-2.8.25-2.1.55.55.25 2.3.7 1.3.2 5.65.35 4.25-.4 3-.95 1.3-.7 1.15-.95.95-1.15.15-.35M.15-18.3l.15-.65-.5.45-.5.8-.3.65-1 3.15-.15.3-.2.25-.3.3h-.15l-.15.05-.8.15-2.15.2-.25.05h-.05l-.9.2-1.2.45-2.2 1.3-1.45 1.25-1.75 2.2-.35.6v.05l-.1.15-.45.85-1.25 3.8-.2.9-.15 1.8.05.55.25.85.05.1.85 1.15 2.35 2.45.3.55.1.25.05.25v.3l.05-.1-.05.2-.1.15-.1.2-.2.25-.65.6-4.4 3.15 4.9-1.5.55-.25 1-.7.75-.95.25-.55.05-.2v-.1l.05-.35-.15-1.1-.4-1-.75-1.05-2.1-2.35-.25-.5.1-1.6 1.5-4.55.2-.3.05-.15v.05l.85-1.35.85-1 1.1-1 1.25-.85.45-.25.95-.4.5-.15.3-.05h-.05l.15-.05 2.25-.35 1.1-.3.3-.15.6-.4.1-.1.5-.7.25-.5.3-1.2.3-4.2"/>
      <path d="M3.55-13.2l.8-4.4-1.55 4.55v.05l-.1.3-.65 3.25-.1.15-.05.05-.1.05h-.05l-.1.05H1.6l.05-.05-.25.1-1.9.4-.9.05-.4-.05h-.35l-.35-.05h-.35l-.8.15-.95.4-2.8 2.15.05-.05-.25.2-.9.6-.85.8-.2.3-.05.1-.15.2-.7 1.3-.4 1.2-.1.7.15.75.2.4.3.35 1.4.95.65.6.3.35.25.55.05.15v-.05l.25 1.25v1.85l-.9 4.75-.55 1.4-.1.15.05-.1-.1.15-.1.2-.4.4-.75.35-.5.15-4.85.75-1.7.6-.9.45-.45.3-.05.05-.35.2-1.25 1-1.4 1.65-2.2 5.05.05-.15-.1.2-.1.1h-.1l-.15.05-.6.1h-2.4l-.45.1-.85.35-.5.35-.35.35-1.95 2.4-1.15 1.95-.2.45-.3 1.55-.1.3-.05.1-3.55 4.25 3.5-3.25.45-.5v-.05l.4-.6.2-.5.25-1.1.1-.3v.1l.05-.15.6-.9 2.3-2.65h-.05l.15-.15.5-.2.35-.05 2.45.05.9-.15.5-.25.55-.4.45-.5.15-.2.6-1.05 1.6-3.8.45-.6.35-.35.95-.75.35-.2h-.05l.35-.2 1.45-.65 1.45-.4 4.25-.6 1.35-.5 1.2-.9.65-.8.25-.4.1-.2.05-.05.65-1.6.9-3.35.4-4.3-.05-.7-.3-1.5-.5-.95-.35-.45L-7.2 0l-1.45-.95-.45-.4-.1-.15-.05-.1v-.35l.1-.35.6-1.1.15-.15 1.3-.95h.05l1.35-1.2.3-.2.25-.25.45-.3.2-.1.15-.1.5-.2.3-.05h.65l.4.05h.45l1.05-.1 2.6-.8L2-8l.4-.4.3-.4.2-.4.3-1 .2-1.45v-.65l.15-.95v.05M.2 18.9L12.1 1.5l6.6-11.7-28.25 40.65-6 9.85L.2 18.9"/>
      <path fill="#FFF" d="M-23.45-1.55v-.1l.5-1.15 3.15-5.05.4-1.15.05-.5v-.25l-.35.8-1.1 1.7-3 3.75-.65 1.2-.4 1.05v.05l-.05.2-.05.4L-25 .85l.2 1.35V4l.05.4v.2l.4 1.65 1.55 2.7.3.9.1.65v1.05l-.35 2.5-.1.3.05-.05-.1.2v-.05l-.1.05-2.05 1.55-.35.4-.1.15-.6 1.1-.85 2.95h-.3l-.5.05-1.15-.05-.95.1-.45.15-.05.05-.3.15-1.05.75-.85.95-.35.5-.75 1.7-.45 1.7-.4 1v-.05l-.15.25-.95 1.25-.1.3.45-.5 1.05-.95v-.05l.2-.2 1.85-3.75.2-.25.75-.7.7-.4-.05.05.1-.05.3-.05 2.2.1.7-.1.35-.15.4-.3.4-.45.55-1 .8-2.75.2-.35.15-.15 1.45-1 .6-.5.45-.5.3-.45.25-.5.2-.6v-.05l.4-2.25.1-2-.2-1.35-.4-1.1-1.25-2.05-.4-1-.2-1v.05l-.05-.25-.05-1.95-.05-.3V.6l-.15-.9-.05-1.2.05-.15-.05.1"/>
      <path d="M-23.4-1.65l-.05.1v-.1l.5-1.15 3.15-5.05.4-1.15.05-.5v-.25l-.35.8-1.1 1.7-3 3.75-.65 1.2-.4 1.05v.05l-.05.2-.05.4L-25 .85l.2 1.35V4l.05.4v.2l.4 1.65 1.55 2.7.3.9.1.65v1.05l-.35 2.5-.1.3.05-.05-.1.2v-.05l-.1.05-2.05 1.55-.35.4-.1.15-.6 1.1-.85 2.95h-.3l-.5.05-1.15-.05-.95.1-.45.15-.05.05-.3.15-1.05.75-.85.95-.35.5-.75 1.7-.45 1.7-.4 1v-.05l-.15.25-.95 1.25-.1.3.45-.5 1.05-.95v-.05l.2-.2 1.85-3.75.2-.25.75-.7.7-.4-.05.05.1-.05.3-.05 2.2.1.7-.1.35-.15.4-.3.4-.45.55-1 .8-2.75.2-.35-.1.1v-.05l.1-.05.15-.15 1.45-1 .6-.5.45-.5.3-.45.25-.5.2-.6v-.05l.4-2.25.1-2-.2-1.35-.4-1.1-1.25-2.05-.4-1-.2-1v.05l-.05-.25-.05-1.95-.05-.3V.6l-.15-.9-.05-1.2.05-.15"/>
      <path fill="#FFF" d="M-24.55 17.6l-.1.05v.05l.1-.1"/>
      <path d="M-21.1-1.5l-.25 1.15-.1 2.15.2 1.25.7 1.9.65 1.05 1.8 3.6.45 1.3.05.25.15-.25.45-.95.2-1.25-.05-.9-.2-.9-1.2-2.75v.05l-.3-.7-.35-1.35-.05-.45v-.65l.2-1.95.65-2.45v.05l.55-1.8.2-1.3v-.95l-.1-.65-.15-.35-.25.25-.9 1.3-1.45 2.65-.9 2.65"/>
      <path fill="#FFF" d="M-43 9.15l.02-.1-.1.17.08-.07m-2.3 4.2l-.43 1.03.95-2.08q-.33.6-.52 1.05"/>
    </g>
    <path d="M512.05 170.4q-1.55.6-2.65 1.7-1.1 1.1-1.7 2.5-.35.75-.5 1.5-.15.75-.15 1.55 0 2.1.7 3.55.3.75.75 1.35.45.65 1 1.1 1.15.95 2.7 1.4 1.5.45 3.25.45 1.85 0 3.4-.6.75-.3 1.45-.75.65-.4 1.2-.9.55-.55 1-1.2.4-.6.75-1.35.6-1.4.6-3.05 0-1-.15-1.85-.15-.9-.5-1.6-.3-.75-.75-1.35-.45-.65-1-1.1-1.15-1-2.65-1.45-.75-.25-1.6-.4l-1.7-.1q-.95 0-1.8.15-.9.15-1.65.45m3.4.65q1.05 0 1.95.45.9.4 1.5 1.2.65.8 1 1.9.35 1.15.35 2.6 0 1.8-.4 3.1-.4 1.35-1.1 2.2-.65.85-1.55 1.25-.9.45-1.9.45-.9 0-1.75-.35t-1.5-1.05q-.65-.75-1-1.95-.25-.8-.35-3 0-1.4.3-2.65.3-1.2.95-2.15.6-.9 1.5-1.45.9-.55 2-.55m-26-1.1q-.9.15-1.65.45-1.55.6-2.65 1.7-1.1 1.1-1.7 2.5-.35.75-.5 1.5-.15.75-.15 1.55 0 2.1.7 3.55.3.75.75 1.35.45.65 1 1.1 1.15.95 2.7 1.4 1.5.45 3.25.45 1.85 0 3.4-.6.75-.3 1.45-.75.65-.4 1.2-.9.55-.55 1-1.2.4-.6.75-1.35.6-1.4.6-3.05 0-1-.15-1.85-.15-.9-.5-1.6-.3-.75-.75-1.35-.45-.65-1-1.1-1.15-1-2.65-1.45-.75-.25-1.6-.4l-1.7-.1q-.95 0-1.8.15m5.2 2.75q.65.8 1 1.9.35 1.15.35 2.6 0 1.8-.4 3.1-.4 1.35-1.1 2.2-.65.85-1.55 1.25-.9.45-1.9.45-.9 0-1.75-.35t-1.5-1.05q-.65-.75-1-1.95-.25-.8-.35-3 0-1.4.3-2.65.3-1.2.95-2.15.6-.9 1.5-1.45.9-.55 2-.55 1.05 0 1.95.45.9.4 1.5 1.2m60.65-.65l.05-.3 3.9.25-.1-.95.1-.95h-11.3l.1.45v1l-.1.45 4.05-.25-.1 13.45.8-.05 2.8.05-.2-13.15m-21.25 1.1q0-.8.65-1.4.6-.6 1.65-.6 1.95 0 2.65 1.9h.35l.7-2.2q-.65-.5-1.55-.75-.9-.3-2.05-.3-1 0-1.9.3-.9.3-1.6.9-.65.6-1.05 1.45-.45.9-.45 2.05 0 1.25.5 2.05.5.8 1.2 1.35.75.55 1.6.95l1.6.8q.7.4 1.2.9.5.55.5 1.4 0 .9-.65 1.55-.6.7-1.95.7-.65 0-1.2-.2-.5-.2-.9-.55-.35-.3-.6-.75-.25-.4-.35-.9h-.4l-.65 2.8q.5.4 1.45.65.9.25 2.1.25 1.3 0 2.4-.35 1.05-.35 1.85-1 .75-.65 1.15-1.55.45-.95.45-2.05 0-.6-.15-1.1-.1-.55-.35-.95-.5-.8-1.25-1.35t-1.6-.95l-1.6-.8q-.75-.4-1.25-.95-.5-.5-.5-1.3m57.85-2.9l-1-.15-5.65.05-.8-.05v15.1l2.8-.05.8.05-.2-6.95h.2l3.95 6.95h4l-2.45-3.7q-1.2-1.85-2.25-3.7 1.65-.45 2.5-1.45.45-.5.7-1.15.2-.65.2-1.45 0-1-.4-1.75-.35-.7-1.05-1.15l-.6-.35-.75-.25m-2.4 1.15q.65.1 1.05.4.4.3.6.9.2.55.2 1.5 0 .8-.2 1.4-.2.6-.6 1-.35.4-.9.55-.6.2-1.3.2h-.25l-.25-.05.1-5.95 1.55.05m-13.7.6l-.1-1 .1-.9h-8.5v15.1l.4-.05 8.1.05-.1-.9.1-1-5.05.3-.05-5.55q2.5 0 5 .2l-.1-.9.1-1-5 .15.1-4.75 5 .25m-227.65-2.05q-.9.15-1.65.45-1.55.6-2.65 1.7-1.1 1.1-1.7 2.5-.35.75-.5 1.5-.15.75-.15 1.55 0 2.1.7 3.55.3.75.75 1.35.45.65 1 1.1 1.15.95 2.7 1.4 1.5.45 3.25.45 1.85 0 3.4-.6.75-.3 1.45-.75.65-.4 1.2-.9.55-.55 1-1.2.4-.6.75-1.35.6-1.4.6-3.05 0-1-.15-1.85-.15-.9-.5-1.6-.3-.75-.75-1.35-.45-.65-1-1.1-1.15-1-2.65-1.45-.75-.25-1.6-.4l-1.7-.1q-.95 0-1.8.15m5.2 2.75q.65.8 1 1.9.35 1.15.35 2.6 0 1.8-.4 3.1-.4 1.35-1.1 2.2-.65.85-1.55 1.25-.9.45-1.9.45-.9 0-1.75-.35t-1.5-1.05q-.65-.75-1-1.95-.25-.8-.35-3 0-1.4.3-2.65.3-1.2.95-2.15.6-.9 1.5-1.45.9-.55 2-.55 1.05 0 1.95.45.9.4 1.5 1.2m39.55-2.6l.1.45v1l-.1.45 4.05-.25-.1 13.45.8-.05 2.8.05-.2-13.15.05-.3 3.9.25-.1-.95.1-.95h-11.3m-17.75 1.9l-.1-1 .1-.9h-8.5v15.1l.8-.05 2.8.05-.2-7.15q2.5 0 5 .2l-.1-.9.1-1-5 .15.1-4.75 5 .25m68.6 0l-.1-1 .1-.9h-8.5v15.1l.4-.05 8.1.05-.1-.9.1-1-5.05.3-.05-5.55q2.5 0 5 .2l-.1-.9.1-1-5 .15.1-4.75 5 .25m-18.65-1.85q-.4.05-.95.05-.55 0-1-.05l-.8-.05.15 6.05h-6.7l.2-6.05-.8.05-2.8-.05v15.1h3.6l-.2-7.3h6.7l-.15 7.3h3.6v-15.1l-.85.05m49.2 1.85q-.35-.7-1.05-1.15l-.6-.35-.75-.25-1-.15-5.65.05-.8-.05v15.1l2.8-.05.8.05-.2-6.95h.2l3.95 6.95h4l-2.45-3.7q-1.2-1.85-2.25-3.7 1.65-.45 2.5-1.45.45-.5.7-1.15.2-.65.2-1.45 0-1-.4-1.75m-3.75-.2q.4.3.6.9.2.55.2 1.5 0 .8-.2 1.4-.2.6-.6 1-.35.4-.9.55-.6.2-1.3.2h-.25l-.25-.05.1-5.95 1.55.05q.65.1 1.05.4m-281-1.6l-6.5 2.85.55.5.55.7 2.55-1.25-.25 12.2h3.45l.1-14.85-.45-.15m11.65.3l.1 1.55-.1 1.55 7.5-.25-3.6 5.95q-1.85 2.95-3.9 5.9l2.15-.05.6.05q1.55-3.55 3.4-7.1 1.25-2.35 4.05-7.15l-.2-.3-10-.15m-27.5 1.65q-.65-.9-1.6-1.35-.95-.45-2.15-.45-1.3 0-2.3.5-1 .5-1.7 1.45-1.4 1.95-1.4 5.5 0 1.8.3 3.2.3 1.4 1 2.4.3.5.7.9.4.35.9.6.5.3 1.1.4.6.15 1.25.15 2.7 0 4-2.1 1.3-2.05 1.3-5.85 0-3.55-1.4-5.35m-2.45.4q.25.7.35 2 .1 1.3.1 3.3 0 2.05-.1 3.35-.15 1.3-.35 2.05-.25.75-.6 1-.4.25-.85.25-.6 0-1-.4-.35-.4-.55-1.2-.2-.85-.25-2.15l-.1-3.1q0-1.9.15-3.15.1-1.2.35-1.95.25-.7.6-1 .35-.3.85-.3.45 0 .8.3.4.25.6 1m60.9 4.9q-.45.45-.45 1.1 0 .65.45 1.1.45.45 1.1.45.65 0 1.1-.45.45-.45.45-1.1 0-.65-.45-1.1-.45-.45-1.1-.45-.65 0-1.1.45m49.7-5.45l-.1-1 .1-.9h-8.5v15.1l.4-.05 8.1.05-.1-.9.1-1-5.05.3-.05-5.55q2.5 0 5 .2l-.1-.9.1-1-5 .15.1-4.75 5 .25m-17.4-1.8l-1-.1-3.35 6.6h-.05l-3.25-6.6h-3.95l4.7 8.85-.2 6.25h3.75l-.2-6.7 4.6-8.4-1.05.1m54.1.05l-1-.15h-6.45v15.1h3.6l-.2-6.95h.2l3.95 6.95h4l-2.45-3.7q-1.2-1.85-2.25-3.7 1.65-.45 2.5-1.45.45-.5.7-1.15.2-.65.2-1.45 0-1-.4-1.75-.35-.7-1.05-1.15l-.6-.35-.75-.25m-2.4 1.15q.65.1 1.05.4.4.3.6.9.2.55.2 1.5 0 .8-.2 1.4-.2.6-.6 1-.35.4-.9.55-.6.2-1.3.2h-.25l-.25-.05.1-5.95 1.55.05m-20.05-1.3l-.85-.15L289 185.2l1.6-.05.55.05 1.5-4.45h5.1l1.5 4.45h3.8l-6.1-15.25-.4.1-.45.05m1.15 9.35h-4.05l2.05-5.25 2 5.25m-148.5-6.9q.25-.5.65-.85t1.05-.35q.4 0 .8.15.4.2.7.55.35.4.5 1 .2.6.2 1.5 0 1.05-.35 2.15-.3 1.1-1.05 2.25t-1.95 2.45q-1.2 1.35-2.9 2.85v.95h9.7l-.1-1.4.1-1.4-6.2.15-.05-.05q1.9-1.6 3.15-2.85 1.2-1.25 1.9-2.2.7-1 .95-1.75.25-.8.25-1.55 0-.6-.2-1.3-.25-.65-.8-1.2-.6-.6-1.6-.95t-2.5-.35q-1 0-1.75.2-.75.25-1.35.65-1.1.8-1.5 2l1.7 1.45.25-.1.05-.95q.1-.55.35-1.05"/>
    <g style="display:none;">
      <path d="M425.9 55.95l-.45-1.6-.55-.85-.35-.3-.15-.1-.1-.05-.3-.2-.4-.2-2-.55-22.25-1.35-3.05.8-11.05-.15-4.75.8-4.1-.35-.85.15-10.35-.95-7.4 1-19.9-.6-4.9.5-2.7.7-1.3.55-1.4 1-.85.85-.65.85-.35.7-.15.2-.65 1.55-.85 3.75-.1 3.1.45 3.8v-2.15l.3 1.45v.05l-.05.15-1.45 17.15.1 24.75.6 22.15-1.2 9.65-.1 3.2.25 2.25.45 1.55.6 1.3.25.4.5.6.2.15q2.55 1.15 3 1.3.5.05.9.05l3.3.3q.95-.3 1.3-.35 1.85-.25 5.5-.25l4.55.3q.45 0 3.9.45l1.9-.15 5.15.25q3.35-.45 5-.75.35-.05 4.2-.3 4.15 0 5.95.15 3.35.25 5.85 1.1l9.35-.3q3.65 0 5.05.3 2.7-.25 10.3-.35 2.5.1 3.55.05.4 0 4.75.75l2.7.1q.85-.2 2.15 0 1.35.2 2.8-.1 1.25-.2 2.8-.5 1.1-.4 2.45-1.95.7-.85 1.25-2.45.5-1.85.75-2.6l.95-7.2.05-.2v-.1l.35-1.95.3-13.55 1.35-23.6-.75-24.8V59.15l.35-1.65v-1.55m-20.55 36.6q-.25.25-5.7 1.2-5.5.95-6.5 1.3-1.5.5-4.2 1-2.65.45-4.1.45-.65 0-.95.3-.3.3-.4 1-.15.7 0 1.3l.15.6 5.4-.55q5.1-.7 15.15-1.7 6.4-.65 10.35 2.4 4 3 5.3 9.5.85 4.2-.7 11.2-1.55 7-5.25 15.35-1.5 3.5-4.3 6.2-2.9 2.8-6.2 3.95-3.25 1.15-7.5.85-3.3-.25-6.8-1.7-5.1-2-7.5-5.35-2.4-3.3-2.35-8.2l-.1-2.15q-.1-.9 0-1.65.05-.75.3-.85.5-.15 1.7 1.7 2.35 3.55 6.95 5.2 1.35.5 3.15.6 2.4.1 4.05-.5 1.7-.6 3.45-2.25 3.15-2.9 5.55-6.8t3.65-8q1.35-4.5 1.45-7.45.1-1.95-1.7-3.35-1.75-1.45-4.25-1.45h-1.05l.55.65q.8 1.05 1.5 2.55l.95 1.9v1.5q0 1.1-.05 1.4-.05.45-.35 1-.45.9-1 1.35-.4.35-.65.4-.3.1-1.15.05-1.15-.05-1.55-.45-.5-.45-.65-.95-.15-.5-.25-2.3-.05-1.8-.35-2.95-.25-1.1-.95-2.5-.65-1.25-1.05-1.55-.4-.25-1.6-.25-2.25 0-3.65.4-.25.15.55 1.05 1.95 2.2 2.85 4.8.95 2.7-.8 4.25-1.25 1.15-2.75 1.1-1.5-.05-1.8-1.2-.5-2.15-.85-4.05l-.35-3.45q-.1-1.8-.2-1.9-.15-.1-2.8.45t-3.5.9q-.25.1-.15.2.1.15.8.7 2.75 1.95 4.05 3.75.8 1.05 1.15 1.95.35.85.45 2.05.05 2.25-1 3.2-.35.35-.6.4-.25.1-.95.1-1.65 0-2.55-1.05-.8-.85-1.55-2.95-.65-1.8-1.4-2.9-.75-1.15-1.35-1.15-.75 0-1.2 1.1-.5 1.1-.1 1.95.3.6.25 3.5 0 2.4-.15 3.4t-.7 1.8q-.45.65-.9.9t-1.25.25q-.95-.05-1.75-.6-2.35-1.65-2.7-5.8-.35-3.8-2-5.6l-.55-.6-6.85.8q-.55 0-.9.35-.9.9.3 1.05 1.45.2 4.1 2.05 1 .7 2.4 2.1 1.4 1.45 1.7 2.1.65 1.2.25 2.6-.3.95-1.65 1.7-1.3.8-2.3.65-.45-.1-1.7-1.05-1.5-1.15-3.6-2.5t-2.4-1.35q-1.25 0-3.5 2.4-2.2 2.4-4.1 5.9-1.35 2.5-2.75 3.6-1.4 1.15-3.15 1.15-3 0-4.1-3.55-.35-1.1-.35-3.55 0-2.75.4-3.65.35-.9 1.5-.9.75 0 1.25-.2.95-.55 3.15-3.45 2.2-2.95 1.85-3.3-.15-.15-2.05 0-1.95.2-5.85.2-3.85 0-5.1-.2-5.3-.7-6.45-2.95-.4-.8-.3-1.75.1-.95.6-1.2.4-.2 1.35-.15.9.05 1.65.35 2.2.85 8.35.15 6.15-.75 10.45-2.3.9-.3 1.05-.45.25-.15.3-.55l.4-1.2q.65-1.25.3-1.25l-2.75.95q-2.7.9-3.1.9l-1.25.25q-2.3.8-3-1.4-.25-.9-.3-2.35-.1-1.5.1-1.9.35-.8 1.75-1.15 1.45-.3 5.7-4 2-1.8 1.7-1.8l-1.75.3q-3.25.65-5.85 1.8-2 .9-3.2.55-2.05-.55-2.05-4.65 0-1.5.35-2.3.95-1.75 3.15-2.05 1.7-.2 2.9-1.1.2-.15.15-.3-.1-.2-.65-.9-.5-.55-1.4-2.1-.4-.85-.5-1.2-.1-.4-.05-1.3 0-1.4.4-2.35l.6-1.65q.15-.6.15-2.15-.05-1.5-.2-2.25-.4-1.85-1.1-2.45-.65-.55.2-1.25l.5-.35 1.05.6q1 .55 1.3.55l2.1-1q3.15-1.6 6.2-2.5 2.4-.7 3.65-1.75 1.25-1.1 1.25-2.2 0-.6.35-.75.4-.2 1.55-.15 1.15.05 2.65.8 2.95 1.45 4.5 3.2l.65.65v2.9q0 2.5.2 3.65t1.15 3.8q.75 2.15.75 3.45l.05 1.25-.8-.05q-1.3 0-2.6-1.15-.55-.5-.75-.95-.2-.4-.45-1.85-.55-3.55-1.1-4.35-.2-.25-2.5.15-2.25.35-2.45.55-.2.2-.15 1.85 0 1.65.25 2.2.7 1.65-.35 3.85-1.05 2.15-3.2 3.4-1.6.95-3.6 2.55-2 1.55-2 1.9 0 .2.95.25 1 .05 1.85-.1 3.6-.5 5.7-1.8 2.1-1.25 3.55-3.8.55-.85.9-1.1.35-.25 1.05-.25.55 0 1.15.6.4.4.5.65.1.2.1.7 0 1.3-1.75 4.05-.7 1.05-.7 1.25 0 .15 1.05.75 1.9 1.15 3.65 2.7 1.7 1.5 2.55 2.75 1.3 2.05 1.3 4 .05 1.75-.6 2.3-.6.55-2.5.45-2.15-.05-3.1-1.3l-.5-.55-.5.3q-1.7.85-3.45 1.05l-.95.2q-.15.15.65 1.25.85 1.1.85 1.55 0 .4.2.7.2.3.7.1 1.55-.5 5.25-.15 3.8.4 5.1 1.2 2.2 1.35.95 3.85l-.45.9.95 1.15.45-.85q.45-.95 1.05-1.6.55-.65.6-.8.05-.15-.3-.15-.4 0-.9-.6-.5-.55-.75-1.35-.35-.9-.6-4.7-.15-3.25-.4-5.35-.2-3.05-.25-8.65-.1-6.7-.45-9.2-.8-4.65-1.75-6.4-.6-1.2-.6-2.1 0-1.55 1.2-1.75 1.4-.2 2.85 1.1l.95.9 1.35-1.45q4.7-5 4.25-7.2-.1-.55-.5-1-.4-.45-.8-.45-.8 0-.8-.6 0-.3.75-.55.8-.25 1.65-.25 2.2 0 4 1.2.85.55 2 1.75 1.2 1.2 1.4 1.75.25.6.35 1.5.05.9-.1 1.45-.45 1.3-1.8 2.1-1.4.8-5.05 1.75l-4.85 1.45q-.6.15-.55.35l1.25 5.3q.2.2 1.65-1.3 4.4-4.1 8.5-5.35 1.25-.4 3.3-.45 1.95 0 3.1.35 1.15.4 1.9 1.2 2.85 2.95 3 6.5.1 1.75-.35 3.15-.45 1.4-1.65 3.2-.75 1.1-2.45 2.75-1.75 1.7-2.65 2.15-3.25 1.85-8.25 2.3-1.95.1-2.1.25-.15.15.2.5.35.3.6.3l4-.6q5.1-.95 9.9-2.2 1.2-.3 1.8-.4.5-.05 1.75 0 1.75.05 2.8.45.65.2.9.4.2.2.45.65.7 1.35.05 1.9"/>
      <path d="M346.65 70.55l.35 1.15q.8 2.3 1.1 5.35.1 1.1-.05 2.7-.15 1.7-.4 2.65-.2.85-.05.85.05 0 1.85-1.05 2.4-1.6 3.25-2.25l1.65-1.2v-1.3q0-1.5.15-2.55l.25-3.65-7.75-.7h-.35M362.2 92.6l-.75-1-1.35 1.35q-1.15 1.15-3.45 2.95-2.15 1.5-2.15 1.65 0 .1 3.9-.45 1.65-.2 3.7-.6 2-.4 2.1-.5.05-.1-.6-1.3-.7-1.15-1.4-2.1m22.35-9.1l-.6-.05h-.45q-.05 0-.25.25-.5.65-.6 1.85-.1 1.25.3 1.25l.95-.25q.95-.2 2.5-1.05 1.5-.8 1.5-1.05 0-.3-3.35-.95m7.3-3.6q1.75-1.75 1.5-3.25t-1.3-1.5q-.9 0-2.65.85-1.7.85-2.8 1.8-.4.35-.45.5-.05.1.15.35.45.5 2.05 1.3 1.6.75 2.3.8.4 0 1.2-.85"/>
      <animate attributeName="display" repeatCount="indefinite" dur="2.9583s" keyTimes="0;0.1268;0.169;0.2535;0.2958;0.3803;0.4225;0.507;0.5493;0.6338;0.6761;0.7606;0.8028;0.8873;0.9296;1" values="none;inline;none;inline;none;inline;none;inline;none;inline;none;inline;none;inline;none;none"/>
    </g>
    <g style="display:none;">
      <path d="M425 95.25q-1.1-10.8-1.1-10.9 1.45-12.3 1.45-15.2 0-7.3-.1-8.6-.2-3.65-1.35-5.4-2.3-3.6-13.25-3.6-.9 0-2.7.55-1.8.55-2.65.55-12.45-.7-13.3-.7-7.85-.4-10.6-.4-3.65 0-12.25.55-8.55.55-14.05.55-10.6-.55-16.45-.3-10.65.55-12.4 6.75-3.17 3.54-3.13 12.8.04 9.26.38 16.42.35 7.18 1.05 18.68 0 .45-.35 4.55-.35 4.5-.35 7.1 0 2-.55 5.85-.55 3.8-.55 5.25 0 .85.75 7.9 0 3.1-.3 9.9.65 5.2 6.4 5.15 3.7-.05 10.75.5 7.3.6 11.3.6 4.35 0 13.2-.7 8.8-.75 15.3-.75l37.1 1.1q6.93-.74 7.2-3.67.27-2.94.07-11.2-.18-8.28.68-13.38.85-4.95.85-11.4 0-7.7-1.05-18.55m-19.65-2.7q-.25.25-5.7 1.2-5.5.95-6.5 1.3-1.5.5-4.2 1-2.65.45-4.1.45-.65 0-.95.3-.3.3-.4 1-.15.7 0 1.3l.15.6 5.4-.55q5.1-.7 15.15-1.7 6.4-.65 10.35 2.4 4 3 5.3 9.5.85 4.2-.7 11.2-1.55 7-5.25 15.35-1.5 3.5-4.3 6.2-2.9 2.8-6.2 3.95-3.25 1.15-7.5.85-3.3-.25-6.8-1.7-5.1-2-7.5-5.35-2.4-3.3-2.35-8.2l-.1-2.15q-.1-.9 0-1.65.05-.75.3-.85.5-.15 1.7 1.7 2.35 3.55 6.95 5.2 1.35.5 3.15.6 2.4.1 4.05-.5 1.7-.6 3.45-2.25 3.15-2.9 5.55-6.8t3.65-8q1.35-4.5 1.45-7.45.1-1.95-1.7-3.35-1.75-1.45-4.25-1.45h-1.05l.55.65q.8 1.05 1.5 2.55l.95 1.9v1.5q0 1.1-.05 1.4-.05.45-.35 1-.45.9-1 1.35-.4.35-.65.4-.3.1-1.15.05-1.15-.05-1.55-.45-.5-.45-.65-.95-.15-.5-.25-2.3-.05-1.8-.35-2.95-.25-1.1-.95-2.5-.65-1.25-1.05-1.55-.4-.25-1.6-.25-2.25 0-3.65.4-.25.15.55 1.05 1.95 2.2 2.85 4.8.95 2.7-.8 4.25-1.25 1.15-2.75 1.1-1.5-.05-1.8-1.2-.5-2.15-.85-4.05l-.35-3.45q-.1-1.8-.2-1.9-.15-.1-2.8.45t-3.5.9q-.25.1-.15.2.1.15.8.7 2.75 1.95 4.05 3.75.8 1.05 1.15 1.95.35.85.45 2.05.05 2.25-1 3.2-.35.35-.6.4-.25.1-.95.1-1.65 0-2.55-1.05-.8-.85-1.55-2.95-.65-1.8-1.4-2.9-.75-1.15-1.35-1.15-.75 0-1.2 1.1-.5 1.1-.1 1.95.3.6.25 3.5 0 2.4-.15 3.4t-.7 1.8q-.45.65-.9.9t-1.25.25q-.95-.05-1.75-.6-2.35-1.65-2.7-5.8-.35-3.8-2-5.6l-.55-.6-6.85.8q-.55 0-.9.35-.9.9.3 1.05 1.45.2 4.1 2.05 1 .7 2.4 2.1 1.4 1.45 1.7 2.1.65 1.2.25 2.6-.3.95-1.65 1.7-1.3.8-2.3.65-.45-.1-1.7-1.05-1.5-1.15-3.6-2.5t-2.4-1.35q-1.25 0-3.5 2.4-2.2 2.4-4.1 5.9-1.35 2.5-2.75 3.6-1.4 1.15-3.15 1.15-3 0-4.1-3.55-.35-1.1-.35-3.55 0-2.75.4-3.65.35-.9 1.5-.9.75 0 1.25-.2.95-.55 3.15-3.45 2.2-2.95 1.85-3.3-.15-.15-2.05 0-1.95.2-5.85.2-3.85 0-5.1-.2-5.3-.7-6.45-2.95-.4-.8-.3-1.75.1-.95.6-1.2.4-.2 1.35-.15.9.05 1.65.35 2.2.85 8.35.15 6.15-.75 10.45-2.3.9-.3 1.05-.45.25-.15.3-.55l.4-1.2q.65-1.25.3-1.25l-2.75.95q-2.7.9-3.1.9l-1.25.25q-2.3.8-3-1.4-.25-.9-.3-2.35-.1-1.5.1-1.9.35-.8 1.75-1.15 1.45-.3 5.7-4 2-1.8 1.7-1.8l-1.75.3q-3.25.65-5.85 1.8-2 .9-3.2.55-2.05-.55-2.05-4.65 0-1.5.35-2.3.95-1.75 3.15-2.05 1.7-.2 2.9-1.1.2-.15.15-.3-.1-.2-.65-.9-.5-.55-1.4-2.1-.4-.85-.5-1.2-.1-.4-.05-1.3 0-1.4.4-2.35l.6-1.65q.15-.6.15-2.15-.05-1.5-.2-2.25-.4-1.85-1.1-2.45-.65-.55.2-1.25l.5-.35 1.05.6q1 .55 1.3.55l2.1-1q3.15-1.6 6.2-2.5 2.4-.7 3.65-1.75 1.25-1.1 1.25-2.2 0-.6.35-.75.4-.2 1.55-.15 1.15.05 2.65.8 2.95 1.45 4.5 3.2l.65.65v2.9q0 2.5.2 3.65t1.15 3.8q.75 2.15.75 3.45l.05 1.25-.8-.05q-1.3 0-2.6-1.15-.55-.5-.75-.95-.2-.4-.45-1.85-.55-3.55-1.1-4.35-.2-.25-2.5.15-2.25.35-2.45.55-.2.2-.15 1.85 0 1.65.25 2.2.7 1.65-.35 3.85-1.05 2.15-3.2 3.4-1.6.95-3.6 2.55-2 1.55-2 1.9 0 .2.95.25 1 .05 1.85-.1 3.6-.5 5.7-1.8 2.1-1.25 3.55-3.8.55-.85.9-1.1.35-.25 1.05-.25.55 0 1.15.6.4.4.5.65.1.2.1.7 0 1.3-1.75 4.05-.7 1.05-.7 1.25 0 .15 1.05.75 1.9 1.15 3.65 2.7 1.7 1.5 2.55 2.75 1.3 2.05 1.3 4 .05 1.75-.6 2.3-.6.55-2.5.45-2.15-.05-3.1-1.3l-.5-.55-.5.3q-1.7.85-3.45 1.05l-.95.2q-.15.15.65 1.25.85 1.1.85 1.55 0 .4.2.7.2.3.7.1 1.55-.5 5.25-.15 3.8.4 5.1 1.2 2.2 1.35.95 3.85l-.45.9.95 1.15.45-.85q.45-.95 1.05-1.6.55-.65.6-.8.05-.15-.3-.15-.4 0-.9-.6-.5-.55-.75-1.35-.35-.9-.6-4.7-.15-3.25-.4-5.35-.2-3.05-.25-8.65-.1-6.7-.45-9.2-.8-4.65-1.75-6.4-.6-1.2-.6-2.1 0-1.55 1.2-1.75 1.4-.2 2.85 1.1l.95.9 1.35-1.45q4.7-5 4.25-7.2-.1-.55-.5-1-.4-.45-.8-.45-.8 0-.8-.6 0-.3.75-.55.8-.25 1.65-.25 2.2 0 4 1.2.85.55 2 1.75 1.2 1.2 1.4 1.75.25.6.35 1.5.05.9-.1 1.45-.45 1.3-1.8 2.1-1.4.8-5.05 1.75l-4.85 1.45q-.6.15-.55.35l1.25 5.3q.2.2 1.65-1.3 4.4-4.1 8.5-5.35 1.25-.4 3.3-.45 1.95 0 3.1.35 1.15.4 1.9 1.2 2.85 2.95 3 6.5.1 1.75-.35 3.15-.45 1.4-1.65 3.2-.75 1.1-2.45 2.75-1.75 1.7-2.65 2.15-3.25 1.85-8.25 2.3-1.95.1-2.1.25-.15.15.2.5.35.3.6.3l4-.6q5.1-.95 9.9-2.2 1.2-.3 1.8-.4.5-.05 1.75 0 1.75.05 2.8.45.65.2.9.4.2.2.45.65.7 1.35.05 1.9"/>
      <path d="M347 70.55h-.35l.35 1.15q.8 2.3 1.1 5.35.1 1.1-.05 2.7-.15 1.7-.4 2.65-.2.85-.05.85.05 0 1.85-1.05 2.4-1.6 3.25-2.25l1.65-1.2v-1.3q0-1.5.15-2.55l.25-3.65-7.75-.7m15.2 22.05l-.75-1-1.35 1.35q-1.15 1.15-3.45 2.95-2.15 1.5-2.15 1.65 0 .1 3.9-.45 1.65-.2 3.7-.6 2-.4 2.1-.5.05-.1-.6-1.3-.7-1.15-1.4-2.1m22.35-9.1l-.6-.05h-.45q-.05 0-.25.25-.5.65-.6 1.85-.1 1.25.3 1.25l.95-.25q.95-.2 2.5-1.05 1.5-.8 1.5-1.05 0-.3-3.35-.95m8.8-6.85q-.25-1.5-1.3-1.5-.9 0-2.65.85-1.7.85-2.8 1.8-.4.35-.45.5-.05.1.15.35.45.5 2.05 1.3 1.6.75 2.3.8.4 0 1.2-.85 1.75-1.75 1.5-3.25"/>
      <animate attributeName="display" repeatCount="indefinite" dur="2.9583s" keyTimes="0;0.0845;0.1268;0.2113;0.2535;0.338;0.3803;0.4648;0.507;0.5915;0.6338;0.7183;0.7606;0.8451;0.8873;0.9718;1" values="none;inline;none;inline;none;inline;none;inline;none;inline;none;inline;none;inline;none;inline;inline"/>
    </g>
    <g style="display:none;">
      <path d="M425.05 68.05q.13-8.9-2.5-12.5-2.63-3.6-14.3-3.65-7.66.03-13.5.4-2.43.14-4.55.35l-62.05.35q-3.6 1.35-4.3 10.4-.7 9.05-.7 11.85 0 11.35.95 15.88.94 4.52 1.2 8.97.26 4.45-1.15 16.35-1.4 11.9-1.4 13.85 0 .1.9 7.7.9 8.2.9 11.1 0 3.4 7.6 4.35 2.7.35 10.35.35 6.35 0 10.45-1t5.4-.8q1.3.2 9.7 1.18 8.4.96 10.85.97 2.05 0 8.2-.9 6.15-.9 9.75-.9.85 0 13.15.8 12.3.78 13.85-7.72 1.55-8.5 2.45-17.48-.25-9.3-.25-13.95.05-1.9.05-3.55.05-3.3-.05-5.1-.05-1.15-.55-3.75-.5-2.45-.5-3.75l.05-6.17q.05-5.63-.05-10.18t.05-13.45m-19.7 24.5q-.25.25-5.7 1.2-5.5.95-6.5 1.3-1.5.5-4.2 1-2.65.45-4.1.45-.65 0-.95.3-.3.3-.4 1-.15.7 0 1.3l.15.6 5.4-.55q5.1-.7 15.15-1.7 6.4-.65 10.35 2.4 4 3 5.3 9.5.85 4.2-.7 11.2-1.55 7-5.25 15.35-1.5 3.5-4.3 6.2-2.9 2.8-6.2 3.95-3.25 1.15-7.5.85-3.3-.25-6.8-1.7-5.1-2-7.5-5.35-2.4-3.3-2.35-8.2l-.1-2.15q-.1-.9 0-1.65.05-.75.3-.85.5-.15 1.7 1.7 2.35 3.55 6.95 5.2 1.35.5 3.15.6 2.4.1 4.05-.5 1.7-.6 3.45-2.25 3.15-2.9 5.55-6.8t3.65-8q1.35-4.5 1.45-7.45.1-1.95-1.7-3.35-1.75-1.45-4.25-1.45h-1.05l.55.65q.8 1.05 1.5 2.55l.95 1.9v1.5q0 1.1-.05 1.4-.05.45-.35 1-.45.9-1 1.35-.4.35-.65.4-.3.1-1.15.05-1.15-.05-1.55-.45-.5-.45-.65-.95-.15-.5-.25-2.3-.05-1.8-.35-2.95-.25-1.1-.95-2.5-.65-1.25-1.05-1.55-.4-.25-1.6-.25-2.25 0-3.65.4-.25.15.55 1.05 1.95 2.2 2.85 4.8.95 2.7-.8 4.25-1.25 1.15-2.75 1.1-1.5-.05-1.8-1.2-.5-2.15-.85-4.05l-.35-3.45q-.1-1.8-.2-1.9-.15-.1-2.8.45t-3.5.9q-.25.1-.15.2.1.15.8.7 2.75 1.95 4.05 3.75.8 1.05 1.15 1.95.35.85.45 2.05.05 2.25-1 3.2-.35.35-.6.4-.25.1-.95.1-1.65 0-2.55-1.05-.8-.85-1.55-2.95-.65-1.8-1.4-2.9-.75-1.15-1.35-1.15-.75 0-1.2 1.1-.5 1.1-.1 1.95.3.6.25 3.5 0 2.4-.15 3.4t-.7 1.8q-.45.65-.9.9t-1.25.25q-.95-.05-1.75-.6-2.35-1.65-2.7-5.8-.35-3.8-2-5.6l-.55-.6-6.85.8q-.55 0-.9.35-.9.9.3 1.05 1.45.2 4.1 2.05 1 .7 2.4 2.1 1.4 1.45 1.7 2.1.65 1.2.25 2.6-.3.95-1.65 1.7-1.3.8-2.3.65-.45-.1-1.7-1.05-1.5-1.15-3.6-2.5t-2.4-1.35q-1.25 0-3.5 2.4-2.2 2.4-4.1 5.9-1.35 2.5-2.75 3.6-1.4 1.15-3.15 1.15-3 0-4.1-3.55-.35-1.1-.35-3.55 0-2.75.4-3.65.35-.9 1.5-.9.75 0 1.25-.2.95-.55 3.15-3.45 2.2-2.95 1.85-3.3-.15-.15-2.05 0-1.95.2-5.85.2-3.85 0-5.1-.2-5.3-.7-6.45-2.95-.4-.8-.3-1.75.1-.95.6-1.2.4-.2 1.35-.15.9.05 1.65.35 2.2.85 8.35.15 6.15-.75 10.45-2.3.9-.3 1.05-.45.25-.15.3-.55l.4-1.2q.65-1.25.3-1.25l-2.75.95q-2.7.9-3.1.9l-1.25.25q-2.3.8-3-1.4-.25-.9-.3-2.35-.1-1.5.1-1.9.35-.8 1.75-1.15 1.45-.3 5.7-4 2-1.8 1.7-1.8l-1.75.3q-3.25.65-5.85 1.8-2 .9-3.2.55-2.05-.55-2.05-4.65 0-1.5.35-2.3.95-1.75 3.15-2.05 1.7-.2 2.9-1.1.2-.15.15-.3-.1-.2-.65-.9-.5-.55-1.4-2.1-.4-.85-.5-1.2-.1-.4-.05-1.3 0-1.4.4-2.35l.6-1.65q.15-.6.15-2.15-.05-1.5-.2-2.25-.4-1.85-1.1-2.45-.65-.55.2-1.25l.5-.35 1.05.6q1 .55 1.3.55l2.1-1q3.15-1.6 6.2-2.5 2.4-.7 3.65-1.75 1.25-1.1 1.25-2.2 0-.6.35-.75.4-.2 1.55-.15 1.15.05 2.65.8 2.95 1.45 4.5 3.2l.65.65v2.9q0 2.5.2 3.65t1.15 3.8q.75 2.15.75 3.45l.05 1.25-.8-.05q-1.3 0-2.6-1.15-.55-.5-.75-.95-.2-.4-.45-1.85-.55-3.55-1.1-4.35-.2-.25-2.5.15-2.25.35-2.45.55-.2.2-.15 1.85 0 1.65.25 2.2.7 1.65-.35 3.85-1.05 2.15-3.2 3.4-1.6.95-3.6 2.55-2 1.55-2 1.9 0 .2.95.25 1 .05 1.85-.1 3.6-.5 5.7-1.8 2.1-1.25 3.55-3.8.55-.85.9-1.1.35-.25 1.05-.25.55 0 1.15.6.4.4.5.65.1.2.1.7 0 1.3-1.75 4.05-.7 1.05-.7 1.25 0 .15 1.05.75 1.9 1.15 3.65 2.7 1.7 1.5 2.55 2.75 1.3 2.05 1.3 4 .05 1.75-.6 2.3-.6.55-2.5.45-2.15-.05-3.1-1.3l-.5-.55-.5.3q-1.7.85-3.45 1.05l-.95.2q-.15.15.65 1.25.85 1.1.85 1.55 0 .4.2.7.2.3.7.1 1.55-.5 5.25-.15 3.8.4 5.1 1.2 2.2 1.35.95 3.85l-.45.9.95 1.15.45-.85q.45-.95 1.05-1.6.55-.65.6-.8.05-.15-.3-.15-.4 0-.9-.6-.5-.55-.75-1.35-.35-.9-.6-4.7-.15-3.25-.4-5.35-.2-3.05-.25-8.65-.1-6.7-.45-9.2-.8-4.65-1.75-6.4-.6-1.2-.6-2.1 0-1.55 1.2-1.75 1.4-.2 2.85 1.1l.95.9 1.35-1.45q4.7-5 4.25-7.2-.1-.55-.5-1-.4-.45-.8-.45-.8 0-.8-.6 0-.3.75-.55.8-.25 1.65-.25 2.2 0 4 1.2.85.55 2 1.75 1.2 1.2 1.4 1.75.25.6.35 1.5.05.9-.1 1.45-.45 1.3-1.8 2.1-1.4.8-5.05 1.75l-4.85 1.45q-.6.15-.55.35l1.25 5.3q.2.2 1.65-1.3 4.4-4.1 8.5-5.35 1.25-.4 3.3-.45 1.95 0 3.1.35 1.15.4 1.9 1.2 2.85 2.95 3 6.5.1 1.75-.35 3.15-.45 1.4-1.65 3.2-.75 1.1-2.45 2.75-1.75 1.7-2.65 2.15-3.25 1.85-8.25 2.3-1.95.1-2.1.25-.15.15.2.5.35.3.6.3l4-.6q5.1-.95 9.9-2.2 1.2-.3 1.8-.4.5-.05 1.75 0 1.75.05 2.8.45.65.2.9.4.2.2.45.65.7 1.35.05 1.9"/>
      <path d="M347 70.55h-.35l.35 1.15q.8 2.3 1.1 5.35.1 1.1-.05 2.7-.15 1.7-.4 2.65-.2.85-.05.85.05 0 1.85-1.05 2.4-1.6 3.25-2.25l1.65-1.2v-1.3q0-1.5.15-2.55l.25-3.65-7.75-.7m15.2 22.05l-.75-1-1.35 1.35q-1.15 1.15-3.45 2.95-2.15 1.5-2.15 1.65 0 .1 3.9-.45 1.65-.2 3.7-.6 2-.4 2.1-.5.05-.1-.6-1.3-.7-1.15-1.4-2.1m22.35-9.1l-.6-.05h-.45q-.05 0-.25.25-.5.65-.6 1.85-.1 1.25.3 1.25l.95-.25q.95-.2 2.5-1.05 1.5-.8 1.5-1.05 0-.3-3.35-.95m8.8-6.85q-.25-1.5-1.3-1.5-.9 0-2.65.85-1.7.85-2.8 1.8-.4.35-.45.5-.05.1.15.35.45.5 2.05 1.3 1.6.75 2.3.8.4 0 1.2-.85 1.75-1.75 1.5-3.25"/>
      <animate attributeName="display" repeatCount="indefinite" dur="2.9583s" keyTimes="0;0.0423;0.0845;0.169;0.2113;0.2958;0.338;0.4225;0.4648;0.5493;0.5915;0.6761;0.7183;0.8028;0.8451;0.9296;0.9718;1" values="none;inline;none;inline;none;inline;none;inline;none;inline;none;inline;none;inline;none;inline;none;none"/>
    </g>
    <g>
      <path d="M425.9 55.95l-.45-1.6-.55-.85-.35-.3-.15-.1-.1-.05-.3-.2-.4-.2-2-.55-22.25-1.35-3.05.8-11.05-.15-4.75.8-4.1-.35-.85.15-10.35-.95-7.4 1-19.9-.6-4.9.5-2.7.7-1.3.55-1.4 1-.85.85-.65.85-.35.7-.15.2-.65 1.55-.85 3.75-.1 3.1.45 3.8v-2.15l.3 1.45v.05l-.05.15-1.45 17.15.1 24.75.6 22.15-1.2 9.65-.1 3.2.25 2.25.45 1.55.6 1.3.25.4.5.6.2.15q2.55 1.15 3 1.3.5.05.9.05l3.3.3q.95-.3 1.3-.35 1.85-.25 5.5-.25l4.55.3q.45 0 3.9.45l1.9-.15 5.15.25q3.35-.45 5-.75.35-.05 4.2-.3 4.15 0 5.95.15 3.35.25 5.85 1.1l9.35-.3q3.65 0 5.05.3 2.7-.25 10.3-.35 2.5.1 3.55.05.4 0 4.75.75l2.7.1q.85-.2 2.15 0 1.35.2 2.8-.1 1.25-.2 2.8-.5 1.1-.4 2.45-1.95.7-.85 1.25-2.45.5-1.85.75-2.6l.95-7.2.05-.2v-.1l.35-1.95.3-13.55 1.35-23.6-.75-24.8V59.15l.35-1.65v-1.55m-20.55 36.6q-.25.25-5.7 1.2-5.5.95-6.5 1.3-1.5.5-4.2 1-2.65.45-4.1.45-.65 0-.95.3-.3.3-.4 1-.15.7 0 1.3l.15.6 5.4-.55q5.1-.7 15.15-1.7 6.4-.65 10.35 2.4 4 3 5.3 9.5.85 4.2-.7 11.2-1.55 7-5.25 15.35-1.5 3.5-4.3 6.2-2.9 2.8-6.2 3.95-3.25 1.15-7.5.85-3.3-.25-6.8-1.7-5.1-2-7.5-5.35-2.4-3.3-2.35-8.2l-.1-2.15q-.1-.9 0-1.65.05-.75.3-.85.5-.15 1.7 1.7 2.35 3.55 6.95 5.2 1.35.5 3.15.6 2.4.1 4.05-.5 1.7-.6 3.45-2.25 3.15-2.9 5.55-6.8t3.65-8q1.35-4.5 1.45-7.45.1-1.95-1.7-3.35-1.75-1.45-4.25-1.45h-1.05l.55.65q.8 1.05 1.5 2.55l.95 1.9v1.5q0 1.1-.05 1.4-.05.45-.35 1-.45.9-1 1.35-.4.35-.65.4-.3.1-1.15.05-1.15-.05-1.55-.45-.5-.45-.65-.95-.15-.5-.25-2.3-.05-1.8-.35-2.95-.25-1.1-.95-2.5-.65-1.25-1.05-1.55-.4-.25-1.6-.25-2.25 0-3.65.4-.25.15.55 1.05 1.95 2.2 2.85 4.8.95 2.7-.8 4.25-1.25 1.15-2.75 1.1-1.5-.05-1.8-1.2-.5-2.15-.85-4.05l-.35-3.45q-.1-1.8-.2-1.9-.15-.1-2.8.45t-3.5.9q-.25.1-.15.2.1.15.8.7 2.75 1.95 4.05 3.75.8 1.05 1.15 1.95.35.85.45 2.05.05 2.25-1 3.2-.35.35-.6.4-.25.1-.95.1-1.65 0-2.55-1.05-.8-.85-1.55-2.95-.65-1.8-1.4-2.9-.75-1.15-1.35-1.15-.75 0-1.2 1.1-.5 1.1-.1 1.95.3.6.25 3.5 0 2.4-.15 3.4t-.7 1.8q-.45.65-.9.9t-1.25.25q-.95-.05-1.75-.6-2.35-1.65-2.7-5.8-.35-3.8-2-5.6l-.55-.6-6.85.8q-.55 0-.9.35-.9.9.3 1.05 1.45.2 4.1 2.05 1 .7 2.4 2.1 1.4 1.45 1.7 2.1.65 1.2.25 2.6-.3.95-1.65 1.7-1.3.8-2.3.65-.45-.1-1.7-1.05-1.5-1.15-3.6-2.5t-2.4-1.35q-1.25 0-3.5 2.4-2.2 2.4-4.1 5.9-1.35 2.5-2.75 3.6-1.4 1.15-3.15 1.15-3 0-4.1-3.55-.35-1.1-.35-3.55 0-2.75.4-3.65.35-.9 1.5-.9.75 0 1.25-.2.95-.55 3.15-3.45 2.2-2.95 1.85-3.3-.15-.15-2.05 0-1.95.2-5.85.2-3.85 0-5.1-.2-5.3-.7-6.45-2.95-.4-.8-.3-1.75.1-.95.6-1.2.4-.2 1.35-.15.9.05 1.65.35 2.2.85 8.35.15 6.15-.75 10.45-2.3.9-.3 1.05-.45.25-.15.3-.55l.4-1.2q.65-1.25.3-1.25l-2.75.95q-2.7.9-3.1.9l-1.25.25q-2.3.8-3-1.4-.25-.9-.3-2.35-.1-1.5.1-1.9.35-.8 1.75-1.15 1.45-.3 5.7-4 2-1.8 1.7-1.8l-1.75.3q-3.25.65-5.85 1.8-2 .9-3.2.55-2.05-.55-2.05-4.65 0-1.5.35-2.3.95-1.75 3.15-2.05 1.7-.2 2.9-1.1.2-.15.15-.3-.1-.2-.65-.9-.5-.55-1.4-2.1-.4-.85-.5-1.2-.1-.4-.05-1.3 0-1.4.4-2.35l.6-1.65q.15-.6.15-2.15-.05-1.5-.2-2.25-.4-1.85-1.1-2.45-.65-.55.2-1.25l.5-.35 1.05.6q1 .55 1.3.55l2.1-1q3.15-1.6 6.2-2.5 2.4-.7 3.65-1.75 1.25-1.1 1.25-2.2 0-.6.35-.75.4-.2 1.55-.15 1.15.05 2.65.8 2.95 1.45 4.5 3.2l.65.65v2.9q0 2.5.2 3.65t1.15 3.8q.75 2.15.75 3.45l.05 1.25-.8-.05q-1.3 0-2.6-1.15-.55-.5-.75-.95-.2-.4-.45-1.85-.55-3.55-1.1-4.35-.2-.25-2.5.15-2.25.35-2.45.55-.2.2-.15 1.85 0 1.65.25 2.2.7 1.65-.35 3.85-1.05 2.15-3.2 3.4-1.6.95-3.6 2.55-2 1.55-2 1.9 0 .2.95.25 1 .05 1.85-.1 3.6-.5 5.7-1.8 2.1-1.25 3.55-3.8.55-.85.9-1.1.35-.25 1.05-.25.55 0 1.15.6.4.4.5.65.1.2.1.7 0 1.3-1.75 4.05-.7 1.05-.7 1.25 0 .15 1.05.75 1.9 1.15 3.65 2.7 1.7 1.5 2.55 2.75 1.3 2.05 1.3 4 .05 1.75-.6 2.3-.6.55-2.5.45-2.15-.05-3.1-1.3l-.5-.55-.5.3q-1.7.85-3.45 1.05l-.95.2q-.15.15.65 1.25.85 1.1.85 1.55 0 .4.2.7.2.3.7.1 1.55-.5 5.25-.15 3.8.4 5.1 1.2 2.2 1.35.95 3.85l-.45.9.95 1.15.45-.85q.45-.95 1.05-1.6.55-.65.6-.8.05-.15-.3-.15-.4 0-.9-.6-.5-.55-.75-1.35-.35-.9-.6-4.7-.15-3.25-.4-5.35-.2-3.05-.25-8.65-.1-6.7-.45-9.2-.8-4.65-1.75-6.4-.6-1.2-.6-2.1 0-1.55 1.2-1.75 1.4-.2 2.85 1.1l.95.9 1.35-1.45q4.7-5 4.25-7.2-.1-.55-.5-1-.4-.45-.8-.45-.8 0-.8-.6 0-.3.75-.55.8-.25 1.65-.25 2.2 0 4 1.2.85.55 2 1.75 1.2 1.2 1.4 1.75.25.6.35 1.5.05.9-.1 1.45-.45 1.3-1.8 2.1-1.4.8-5.05 1.75l-4.85 1.45q-.6.15-.55.35l1.25 5.3q.2.2 1.65-1.3 4.4-4.1 8.5-5.35 1.25-.4 3.3-.45 1.95 0 3.1.35 1.15.4 1.9 1.2 2.85 2.95 3 6.5.1 1.75-.35 3.15-.45 1.4-1.65 3.2-.75 1.1-2.45 2.75-1.75 1.7-2.65 2.15-3.25 1.85-8.25 2.3-1.95.1-2.1.25-.15.15.2.5.35.3.6.3l4-.6q5.1-.95 9.9-2.2 1.2-.3 1.8-.4.5-.05 1.75 0 1.75.05 2.8.45.65.2.9.4.2.2.45.65.7 1.35.05 1.9"/>
      <path d="M346.65 70.55l.35 1.15q.8 2.3 1.1 5.35.1 1.1-.05 2.7-.15 1.7-.4 2.65-.2.85-.05.85.05 0 1.85-1.05 2.4-1.6 3.25-2.25l1.65-1.2v-1.3q0-1.5.15-2.55l.25-3.65-7.75-.7h-.35M362.2 92.6l-.75-1-1.35 1.35q-1.15 1.15-3.45 2.95-2.15 1.5-2.15 1.65 0 .1 3.9-.45 1.65-.2 3.7-.6 2-.4 2.1-.5.05-.1-.6-1.3-.7-1.15-1.4-2.1m21.05-8.9q-.5.65-.6 1.85-.1 1.25.3 1.25l.95-.25q.95-.2 2.5-1.05 1.5-.8 1.5-1.05 0-.3-3.35-.95l-.6-.05h-.45q-.05 0-.25.25m10.1-7.05q-.25-1.5-1.3-1.5-.9 0-2.65.85-1.7.85-2.8 1.8-.4.35-.45.5-.05.1.15.35.45.5 2.05 1.3 1.6.75 2.3.8.4 0 1.2-.85 1.75-1.75 1.5-3.25"/>
      <animate attributeName="display" repeatCount="indefinite" dur="2.9583s" keyTimes="0;0.0423;1" values="inline;none;none"/>
    </g>
    <path d="M353.2 963.85q-.6.25-1 .65-.45.4-.7.95h-.05v-1.8h-2.2v18.25h2.2v-6.8h.05q.35.6.85 1 .55.35 1.1.6l2.3.45q1.5 0 2.65-.55t1.9-1.45q.75-.95 1.1-2.2.4-1.25.4-2.65t-.4-2.65q-.4-1.3-1.15-2.2-.75-1-1.9-1.55-.55-.3-1.2-.4l-1.45-.15q-1.4 0-2.5.5m4 1.8q.8.4 1.3 1.1.5.7.75 1.6.2.85.2 1.8 0 .95-.2 1.85-.2.95-.65 1.65t-1.2 1.15q-.75.45-1.9.45-1.1 0-1.9-.45-.8-.4-1.3-1.1-.5-.7-.7-1.6-.25-.9-.25-1.85 0-.95.25-1.85.2-.85.7-1.6.45-.7 1.2-1.1.8-.45 1.9-.45 1.05 0 1.8.4m-20.35-1.1q-.35-.45-.85-.7-1-.5-2.2-.5-1.4 0-2.45.55-1.1.55-1.8 1.7h-.05v-1.95h-2.05v13.2h2.15v-8.2q0-.4.2-1 .2-.55.6-1.1.45-.55 1.1-.9.7-.4 1.65-.4.7 0 1.2.25.45.2.75.6.3.4.4.9l.1 1.2v8.65h2.2v-8.2q0-1.55.9-2.5.9-.9 2.55-.9.75 0 1.25.25.5.2.8.6.25.4.4.95l.1 1.15v8.65h2.15v-9.7q0-1-.3-1.7-.35-.75-.9-1.2-.6-.5-1.4-.7-.8-.2-1.8-.2-1.3 0-2.4.6-.5.25-.95.7-.45.4-.8.95-.2-.6-.55-1.05m-12.7 12.3v-13.2H322v7.45q0 .9-.25 1.65-.25.75-.7 1.3-.5.6-1.25.9-.7.3-1.7.3-1.25 0-2-.7-.35-.4-.5-.85-.2-.5-.2-1.1v-8.95h-2.15v8.7q0 1.05.2 1.95.2.85.75 1.5t1.4 1q.9.35 2.2.35 1.45 0 2.5-.6 1.1-.55 1.8-1.8h.05v2.1h2m40.3-18.25v18.25h2.2V958.6h-2.2m30.1 5.05h-2.6l-3.3 4.6-3.2-4.6h-2.75l4.6 6.25-5 6.95h2.65l3.7-5.45 3.65 5.45h2.8l-5.1-7.1 4.55-6.1m-17.4-.15q-.75-.15-1.65-.15-1.35 0-2.45.5-1.15.5-2 1.45-.8.9-1.25 2.15-.5 1.25-.5 2.75.05 1.5.45 2.8.4 1.25 1.2 2.2.8.9 1.95 1.45 1.2.5 2.75.5 1.15 0 2.05-.3.95-.3 1.7-.85 1.45-1.1 1.9-3.35h-2.15q-.15.65-.4 1.15-.3.5-.75.8-.9.65-2.25.65-1.1 0-1.9-.35-.75-.35-1.3-.95-.5-.65-.75-1.4-.2-.8-.2-1.65h9.9q.05-1.2-.2-2.55-.3-1.3-1-2.45-.7-1.1-1.85-1.85-.6-.35-1.3-.55m.9 2.85q.5.5.8 1.15.3.7.35 1.5h-7.6q.05-.8.35-1.45.3-.7.75-1.2.5-.5 1.2-.8.65-.3 1.5-.3.8 0 1.5.3.65.3 1.15.8m25.7 6.8q.4 1.2 1.2 2.1.75.9 1.95 1.4 1.15.5 2.65.5 1.25 0 2.25-.35t1.75-1q.75-.65 1.2-1.6.45-.95.6-2.2h-2.2q-.2 1.55-1.1 2.4-.9.85-2.55.85-1 0-1.75-.4-.7-.4-1.2-1.1-.45-.7-.65-1.55-.25-.85-.25-1.8 0-1 .2-1.9.25-.95.7-1.65.5-.75 1.25-1.15.8-.45 2-.45.65 0 1.2.2.55.15 1 .5.4.35.65.8.3.5.4 1.15h2.25q-.15-1.2-.6-2.05-.5-.85-1.25-1.4-.75-.55-1.75-.85-.95-.25-2.1-.25-1.55 0-2.75.55-1.15.55-1.95 1.5-.75.95-1.15 2.25-.4 1.3-.4 2.75 0 1.5.4 2.75m-3.45.85h-2.85v2.85h2.85V974m34.2-10.35h-2.05v13.2h2.15v-8.2q0-.4.2-1 .2-.55.6-1.1.45-.55 1.1-.9.7-.4 1.65-.4.7 0 1.2.25.45.2.75.6.3.4.4.9l.1 1.2v8.65h2.2v-8.2q0-1.55.9-2.5.9-.9 2.55-.9.75 0 1.25.25.5.2.8.6.25.4.4.95l.1 1.15v8.65h2.15v-9.7q0-1-.3-1.7-.35-.75-.9-1.2-.6-.5-1.4-.7-.8-.2-1.8-.2-1.3 0-2.4.6-.5.25-.95.7-.45.4-.8.95-.2-.6-.55-1.05-.35-.45-.85-.7-1-.5-2.2-.5-1.4 0-2.45.55-1.1.55-1.8 1.7h-.05v-1.95m-11-.3q-1.6 0-2.75.55-1.25.5-2.05 1.45-.8.9-1.25 2.2-.4 1.25-.4 2.7 0 1.45.4 2.7.45 1.25 1.25 2.2.8.95 2.05 1.45.6.25 1.25.4l1.5.15 1.45-.15q.7-.15 1.3-.4 1.2-.5 2-1.45t1.25-2.2q.4-1.25.4-2.7 0-1.45-.4-2.7-.45-1.3-1.25-2.2-.8-.95-2-1.45-1.2-.55-2.75-.55m-1.6 2.25q.75-.35 1.6-.35.8 0 1.6.35.75.3 1.3.95.55.65.9 1.6.3.9.3 2.1 0 1.2-.3 2.15-.35.9-.9 1.55t-1.3.95q-.8.35-1.6.35-.85 0-1.6-.35-.75-.3-1.35-.95-.55-.65-.85-1.55-.35-.95-.35-2.15t.35-2.1q.3-.95.85-1.6.6-.65 1.35-.95m-116.5-2.25l-1.2.1-1.2.4q-.55.3-1 .7-.5.45-.75 1.05h-.05v-7h-2.15v18.25h2.15v-7.45q0-.9.25-1.65.25-.75.75-1.35.45-.55 1.2-.85.7-.3 1.7-.3.65 0 1.15.2.5.15.85.5t.5.85q.2.5.2 1.1v8.95h2.15v-8.7q0-1.05-.2-1.95-.2-.85-.75-1.5t-1.4-1q-.85-.35-2.2-.35"/>
  </g>
</svg>
